<svg xmlns="http://www.w3.org/2000/svg" width="1em" height="1em" viewBox="0 0 24 24">
  <path fill="currentColor"
    d="M12 1c6.075 0 11 4.925 11 11s-4.925 11-11 11S1 18.075 1 12S5.925 1 12 1M2.5 12a9.5 9.5 0 0 0 9.5 9.5a9.5 9.5 0 0 0 9.5-9.5A9.5 9.5 0 0 0 12 2.5A9.5 9.5 0 0 0 2.5 12" />
  <path fill="currentColor"
    d="M11.25 16.5a.75.75 0 1 0 1.5 0a.75.75 0 0 0-1.5 0m.75-9.5c-1.46 0-2.788.87-3.365 2.216a.75.75 0 0 0 1.38.59A2.12 2.12 0 0 1 12 8.5a2.125 2.125 0 0 1 .473 4.197A1.77 1.77 0 0 0 11.25 14.4v.85a.75.75 0 0 0 1.5 0v-.85a.27.27 0 0 1 .188-.258A3.625 3.625 0 0 0 12 7" />
</svg>
