<?xml version="1.0" encoding="UTF-8"?>
<svg width="417px" height="892px" viewBox="0 0 417 892" version="1.1" xmlns="http://www.w3.org/2000/svg" xmlns:xlink="http://www.w3.org/1999/xlink">
    <title>Слой_4</title>
    <g id="Page-2" stroke="none" stroke-width="1" fill="none" fill-rule="evenodd">
        <g id="Desktop" transform="translate(-303.000000, -66.000000)" fill-rule="nonzero">
            <g id="Group" transform="translate(303.000000, 66.000000)">
                <path d="M270.922672,426.168929 C261.357137,452.594429 207.65645,453.566071 191.533511,453.852786 C178.402786,454.091714 120.293359,455.127071 113.75187,431.552786 C110.107099,418.427643 122.075954,396.398429 139.217519,386.952786 C140.156565,386.443071 140.825038,386.092643 141.557176,385.758143 C146.761718,383.432571 156.693321,381.298143 191.533511,380.581357 C191.533511,380.581357 213.959198,379.689357 252.221336,386.952786 C254.927061,387.4625 259.319885,388.3545 263.362557,391.731357 C272.784847,399.600071 274.567443,416.118 270.922672,426.168929 Z" id="Path" fill="#2D2D2D"></path>
                <g>
                    <path d="M51.4246947,261.133 C51.4246947,261.133 9.21538168,254.395214 32.1822137,294.630786 C32.1822137,294.630786 53.7961832,325.325143 60.2262595,305.669286 C60.2262595,305.653357 54.8784733,277.921714 51.4246947,261.133 Z" id="левое_ухо" fill="#DDB9B1" opacity="0.9"></path>
                    <path d="M279.278588,418.0135 C282.55729,423.747786 241.86,429.959929 195.719427,429.959929 C149.578855,429.959929 113.75187,426.997214 113.75187,420.402786 C113.75187,413.808357 129.667901,409.252786 195.719427,406.067071 C255.675115,403.168071 276.095382,412.4385 279.278588,418.0135 Z" id="Path" fill="#000000"></path>
                    <path d="M245.377443,417.456 C245.377443,417.774571 245.266031,418.109071 245.090954,418.363929 C183.543664,507.516143 138.182977,419.606357 138.182977,419.606357 L146.936794,407.261714 C147.271031,406.799786 147.907672,405.382143 148.225992,403.868929 C148.910382,400.667286 149.03771,397.338214 148.623893,394.072857 C148.576145,393.642786 148.512481,393.196786 148.432901,392.766714 L147.541603,387.701429 L147.175534,385.582929 L145.965916,378.717714 C148.95813,376.137286 152.093588,373.971 155.356374,372.187 C187.427176,378.399143 211.253473,377.029286 226.310038,374.496643 C231.753321,376.662929 236.957863,379.052214 241.78042,381.489286 L240.109237,387.112071 L239.472595,389.262429 C238.820038,391.492429 238.422137,393.786143 238.310725,396.095786 C238.040153,401.623 239.329351,407.150214 242.09874,411.865071 L244.247405,415.528643 L245.377443,417.456 Z" id="Path" fill="#E8C3B8"></path>
                    <path d="M244.247405,415.528643 C211.794618,419.701929 168.96458,403.120286 148.623893,394.072857 C148.576145,393.642786 148.512481,393.196786 148.432901,392.766714 L147.541603,387.701429 L147.175534,385.582929 L145.965916,378.717714 C148.95813,376.137286 152.093588,373.971 155.356374,372.187 C187.427176,378.399143 211.253473,377.029286 226.310038,374.496643 C231.753321,376.662929 236.957863,379.052214 241.78042,381.489286 L240.109237,387.112071 L239.472595,389.262429 C238.820038,391.492429 238.422137,393.786143 238.310725,396.095786 C238.040153,401.623 239.329351,407.150214 242.09874,411.865071 L244.247405,415.528643 Z" id="Path" fill="#DDB9B1" opacity="0.5"></path>
                    <path d="M226.310038,374.496643 C211.253473,377.029286 187.427176,378.399143 155.356374,372.187 C152.093588,373.971 148.95813,376.137286 145.965916,378.717714 L147.175534,385.582929 L147.541603,387.701429 C165.924618,392.193286 206.208092,400.492071 238.310725,396.095786 C238.422137,393.786143 238.820038,391.492429 239.472595,389.262429 L240.109237,387.112071 L241.78042,381.489286 C236.957863,379.052214 231.753321,376.662929 226.310038,374.496643 Z" id="Path" fill="#DDB9B1" opacity="0.9"></path>
                    <path d="M60.2262595,330.916071 C59.955687,331.298357 59.1917176,332.254071 57.9184351,333.0505 C57.345458,333.416857 56.6451527,333.751357 55.8493511,333.974357 C53.4778626,334.643357 51.5042748,334.038071 50.8358015,333.799143 L40.2357252,299.1545 C40.156145,299.138571 40.0606489,299.122643 39.9810687,299.106714 C39.8537405,299.074857 39.7264122,299.058929 39.599084,299.027071 C32.6278626,297.418286 28.2668702,290.4575 29.8743893,283.480786 C31.4819084,276.488143 38.4372137,272.139643 45.4084351,273.748429 C52.3955725,275.357214 56.7406489,282.318 55.1331298,289.294714 C54.3691603,292.576 52.4433206,295.267929 49.8649237,297.051929 C53.3187023,308.329357 56.7724809,319.622714 60.2262595,330.916071 Z" id="Path" fill="#EDEDED"></path>
                    <path d="M57.9184351,333.0505 C57.345458,333.416857 56.6451527,333.751357 55.8493511,333.974357 C53.4778626,334.643357 51.5042748,334.038071 50.8358015,333.799143 L40.2357252,299.1545 C40.156145,299.138571 40.0606489,299.122643 39.9810687,299.106714 L37.4185878,289.390286 C37.2594275,288.864643 37.1798473,288.339 37.1798473,287.797429 C37.1798473,285.631143 38.4690458,283.512643 40.9519466,282.764 C41.0156107,284.452429 39.6786641,289.151357 42.6231298,297.577571 C46.411145,309.97 50.8039695,330.836429 57.9184351,333.0505 Z" id="Path" fill="#C9C9C9"></path>
                    <ellipse id="Oval" fill="#353332" transform="translate(46.888070, 282.668427) rotate(-13.768054) translate(-46.888070, -282.668427) " cx="46.8880705" cy="282.668427" rx="1.59172812" ry="3.98210004"></ellipse>
                    <path d="M412.90958,282.556929 C412.575344,283.018857 412.241107,283.480786 411.890954,283.958643 C410.219771,286.252357 408.341679,288.641643 406.304427,291.030929 C405.747366,291.684 405.190305,292.337071 404.617328,292.974214 C401.911603,296.016571 398.951221,298.995214 395.752099,301.734929 C395.083626,302.308357 394.399237,302.865857 393.698931,303.423357 C393.301031,303.741929 392.90313,304.0605 392.489313,304.363143 C392.107328,304.649857 391.725344,304.936571 391.327443,305.223286 C390.531641,305.812643 389.704008,306.370143 388.876374,306.911714 C388.462557,307.1825 388.04874,307.453286 387.634924,307.708143 C386.64813,308.313429 385.64542,308.902786 384.626794,309.428429 C384.021985,309.747 383.417176,310.065571 382.79645,310.352286 C382.47813,310.495643 382.175725,310.639 381.857405,310.782357 C381.618664,310.893857 381.379924,311.005357 381.141183,311.100929 C380.759198,311.260214 380.361298,311.4195 379.979313,311.578786 C379.915649,311.594714 379.867901,311.626571 379.804237,311.6425 C379.358588,311.817714 378.897023,311.992929 378.435458,312.136286 C377.957977,312.3115 377.46458,312.470786 376.971183,312.630071 C376.54145,312.7575 376.111718,312.869 375.681985,312.9805 C375.347748,313.076071 375.013511,313.155714 374.663359,313.235357 C374.392786,313.315 374.122214,313.362786 373.835725,313.410571 C373.517405,313.490214 373.199084,313.553929 372.880763,313.601714 C371.97355,313.761 371.082252,313.888429 370.175038,313.984 C368.153702,314.175143 366.084618,314.175143 363.999618,313.968071 C363.744962,313.952143 363.490305,313.920286 363.235649,313.888429 C363.108321,313.8725 362.965076,313.856571 362.821832,313.840643 C362.360267,313.776929 361.914618,313.697286 361.453053,313.617643 C359.304389,313.235357 357.123893,312.614143 354.911565,311.738071 C354.68874,311.6425 354.481832,311.562857 354.259008,311.467286 C353.924771,311.323929 353.590534,311.180571 353.240382,311.021286 C352.651489,310.7505 352.062595,310.463786 351.457786,310.161143 C351.314542,310.0815 351.139466,310.129286 351.075802,310.288571 C349.149962,314.270714 347.03313,318.141357 344.725305,321.868643 C344.375153,322.458 344.009084,323.047357 343.611183,323.620786 C343.356527,324.050857 343.070038,324.480929 342.78355,324.911 C342.17874,325.850786 341.558015,326.774643 340.905458,327.6985 C340.268817,328.606429 339.632176,329.514357 338.963702,330.422286 C338.072405,331.648786 337.149275,332.875286 336.178397,334.069929 C335.748664,334.627429 335.318931,335.169 334.873282,335.710571 C334.172977,336.586643 333.456756,337.446786 332.724618,338.291 C332.008397,339.135214 331.260344,339.9635 330.51229,340.791786 C329.50958,341.922714 328.459122,343.037714 327.408664,344.136786 C326.899351,344.6465 326.405954,345.156214 325.912557,345.65 C323.556985,348.023357 321.09,350.301143 318.559351,352.499286 C317.15874,353.709857 315.742214,354.872643 314.293855,356.0195 C312.240687,357.660143 310.123855,359.253 307.975191,360.766214 C306.128931,362.056429 304.266756,363.298857 302.356832,364.509429 C301.338206,365.1625 300.31958,365.799643 299.300954,366.404929 C298.39374,366.9465 297.486527,367.472143 296.563397,367.997786 C290.674466,371.358714 284.514962,374.289571 278.14855,376.790357 C276.334122,377.491214 274.503779,378.160214 272.657519,378.797357 C272.339198,378.908857 272.020878,379.020357 271.702557,379.131857 C264.158359,381.680429 256.61416,383.735214 249.11771,385.359929 C246.10958,386.013 243.10145,386.602357 240.109237,387.112071 C224.240954,389.867714 208.515916,390.775643 193.141031,390.377429 C177.368244,389.979214 161.977443,388.195214 147.175534,385.582929 C144.883626,385.184714 142.607634,384.754643 140.347557,384.308643 C139.710916,384.197143 139.090191,384.069714 138.469466,383.958214 C127.789809,381.823786 117.476221,379.323 107.57645,376.662929 C83.4636641,370.18 64.5076718,351.352429 58.3322519,327.156929 C48.7508015,289.677 45.8381679,240.903714 44.9468702,214.701214 C44.803626,210.320857 44.7081298,206.561714 44.6603817,203.599 C44.6603817,203.599 44.6603817,203.599 44.6603817,203.583071 C44.5808015,199.298286 44.5648855,196.686 44.5648855,196.192214 C44.5648855,196.1285 44.5808015,196.080714 44.6126336,196.032929 C56.820229,178.177 69.4257252,163.682 82.2381298,152.038214 C82.2540458,152.006357 82.2858779,151.990429 82.3177099,151.958571 C170.858588,71.5352143 269.394733,128.193143 318.686679,167.3615 C318.750344,167.409286 318.798092,167.457071 318.84584,167.504857 C324.161794,171.725929 328.888855,175.739929 332.979275,179.355714 C338.629466,184.373214 343.595267,190.059714 347.749351,196.271857 C347.781183,196.287786 347.797099,196.303714 347.797099,196.319643 C353.431374,204.729929 357.569542,214.095929 359.941031,224.035357 C360.243435,225.309643 360.529924,226.568 360.78458,227.810429 C363.315229,239.900214 364.063282,251.273214 363.506221,261.9135 C363.490305,262.152429 363.744962,262.311714 363.95187,262.168357 C367.087328,260.113571 385.358931,248.692786 399.508282,251.846643 C404.012519,252.834214 407.41855,254.952714 409.949198,257.644643 C413.243817,261.133 415.042328,265.593 415.83813,269.845929 C416.665763,274.29 415.567557,278.893357 412.90958,282.556929 Z" id="Path" fill="#E8C3B8"></path>
                    <path d="M360.78458,227.810429 C348.529237,218.396643 336.576298,208.552786 336.576298,208.552786 C336.576298,208.552786 170.683511,48.2635714 44.9468702,214.701214 C44.803626,210.320857 44.7081298,206.561714 44.6603817,203.599 C44.6603817,203.599 44.6603817,203.599 44.6603817,203.583071 C53.9235115,187.447429 66.4175954,168.842857 82.2381298,152.038214 C82.2540458,152.006357 82.2858779,151.990429 82.3177099,151.958571 C130.19313,101.082714 208.372672,66.7407143 318.686679,167.3615 C318.750344,167.409286 318.798092,167.457071 318.84584,167.504857 C328.236298,176.090357 337.865496,185.6475 347.749351,196.271857 C347.781183,196.287786 347.797099,196.303714 347.797099,196.319643 C353.431374,204.729929 357.569542,214.095929 359.941031,224.035357 C360.243435,225.309643 360.529924,226.568 360.78458,227.810429 Z" id="Path" fill="#DDB9B1" opacity="0.5"></path>
                    <path d="M412.90958,282.556929 C412.575344,283.018857 412.241107,283.480786 411.890954,283.958643 C410.219771,286.252357 408.341679,288.641643 406.304427,291.030929 C405.747366,291.684 405.190305,292.337071 404.617328,292.974214 C401.911603,296.016571 398.951221,298.995214 395.752099,301.734929 C395.083626,302.308357 394.399237,302.865857 393.698931,303.423357 C393.301031,303.741929 392.90313,304.0605 392.489313,304.363143 C392.107328,304.649857 391.725344,304.936571 391.327443,305.223286 C390.531641,305.812643 389.704008,306.370143 388.876374,306.911714 C388.462557,307.1825 388.04874,307.453286 387.634924,307.708143 C386.64813,308.313429 385.64542,308.902786 384.626794,309.428429 C384.021985,309.747 383.417176,310.065571 382.79645,310.352286 C382.47813,310.495643 382.175725,310.639 381.857405,310.782357 C381.618664,310.893857 381.379924,311.005357 381.141183,311.100929 C380.759198,311.260214 380.361298,311.4195 379.979313,311.578786 C379.915649,311.594714 379.867901,311.626571 379.804237,311.6425 C379.358588,311.817714 378.897023,311.992929 378.435458,312.136286 C377.957977,312.3115 377.46458,312.470786 376.971183,312.630071 C376.54145,312.7575 376.111718,312.869 375.681985,312.9805 C375.347748,313.076071 375.013511,313.155714 374.663359,313.235357 C374.392786,313.315 374.122214,313.362786 373.835725,313.410571 C373.517405,313.490214 373.199084,313.553929 372.880763,313.601714 C371.97355,313.761 371.082252,313.888429 370.175038,313.984 C368.153702,314.175143 366.084618,314.175143 363.999618,313.968071 C363.744962,313.952143 363.490305,313.920286 363.235649,313.888429 C363.108321,313.8725 362.965076,313.856571 362.821832,313.840643 C362.360267,313.776929 361.914618,313.697286 361.453053,313.617643 C359.304389,313.235357 357.123893,312.614143 354.911565,311.738071 C354.68874,311.6425 354.481832,311.562857 354.259008,311.467286 C353.924771,311.323929 353.590534,311.180571 353.240382,311.021286 C352.651489,310.7505 352.062595,310.463786 351.457786,310.161143 C351.378206,310.113357 351.28271,310.065571 351.20313,310.017786 C351.155382,310.113357 351.12355,310.193 351.075802,310.288571 C349.149962,314.270714 347.03313,318.141357 344.725305,321.868643 C344.375153,322.458 344.009084,323.047357 343.611183,323.620786 C343.356527,324.050857 343.070038,324.480929 342.78355,324.911 C342.17874,325.850786 341.558015,326.774643 340.905458,327.6985 C340.268817,328.606429 339.632176,329.514357 338.963702,330.422286 C338.072405,331.648786 337.149275,332.875286 336.178397,334.069929 C335.748664,334.627429 335.318931,335.169 334.873282,335.710571 C334.172977,336.586643 333.456756,337.446786 332.724618,338.291 C332.008397,339.135214 331.260344,339.9635 330.51229,340.791786 C329.50958,341.922714 328.459122,343.037714 327.408664,344.136786 C326.899351,344.6465 326.405954,345.156214 325.912557,345.65 C323.556985,348.023357 321.09,350.301143 318.559351,352.499286 C317.15874,353.709857 315.742214,354.872643 314.293855,356.0195 C312.240687,357.660143 310.123855,359.253 307.975191,360.766214 C306.128931,362.056429 304.266756,363.314786 302.356832,364.509429 C301.338206,365.1625 300.31958,365.799643 299.300954,366.404929 C298.39374,366.9465 297.486527,367.472143 296.563397,367.997786 C290.674466,371.358714 284.514962,374.289571 278.14855,376.790357 C276.015802,377.618643 273.867137,378.399143 271.702557,379.131857 C245.138702,388.083714 218.654427,391.046429 193.141031,390.377429 C192.170153,390.218143 191.74042,390.1385 191.74042,390.1385 C254.656489,390.1385 301.943015,342.4165 323.572901,315.560929 C332.215305,304.825071 346.125916,299.839429 359.590878,302.754357 C366.546183,304.267571 373.596985,303.598571 379.931565,301.113714 C377.942061,300.970357 376.159466,299.982786 374.774771,297.752786 C374.774771,297.752786 365.225153,264.302786 389.099198,272.267071 C389.099198,272.267071 397.104962,272.298929 401.48187,279.116357 C405.890611,270.6105 408.246183,263.235571 409.949198,257.644643 C413.243817,261.133 415.042328,265.593 415.83813,269.845929 C416.665763,274.29 415.567557,278.893357 412.90958,282.556929 Z" id="Path" fill="#DDB9B1" opacity="0.5"></path>
                    <path d="M399.189995,281.824214 C399.205878,288.992071 393.412443,294.790071 386.250229,294.806 C386.106985,294.806 385.96374,294.806 385.836412,294.790071 L385.597672,294.790071 L367.517061,326.169357 C366.80084,326.249 364.747672,326.408286 362.599008,325.213643 C361.850954,324.815429 361.246145,324.337571 360.768664,323.843786 C359.70229,322.7925 359.192977,321.693429 359.001985,321.263357 C364.890916,311.037214 370.779847,300.811071 376.684695,290.584929 C374.567863,288.275286 373.29458,285.201071 373.278664,281.840143 C373.278664,274.688214 379.072099,268.874286 386.234313,268.874286 C393.380611,268.874286 399.189995,274.672286 399.189995,281.824214 Z" id="Path" fill="#EDEDED"></path>
                    <path d="M391.247863,283.194071 C391.247863,284.133857 390.993206,285.073643 390.515725,285.901929 L385.836412,294.790071 L385.597672,294.790071 L367.517061,326.169357 C366.80084,326.249 364.747672,326.408286 362.599008,325.213643 C361.850954,324.815429 361.246145,324.337571 360.768664,323.843786 C368.185534,323.318143 377.162176,303.949 383.624084,292.719357 C388.382977,285.169214 388.128321,280.279143 388.573969,278.654429 C390.388397,279.705714 391.247863,281.441929 391.247863,283.194071 Z" id="Path" fill="#C9C9C9"></path>
                    <ellipse id="Oval" fill="#353332" transform="translate(380.695350, 280.025106) rotate(-67.443160) translate(-380.695350, -280.025106) " cx="380.69535" cy="280.025106" rx="3.98168392" ry="1.59178895"></ellipse>
                    <path d="M409.057901,256.625214 C402.261756,254.363357 396.611565,253.280214 391.836756,253.041286 C376.46187,252.244857 370.015878,260.033929 363.060573,264.3665 C364.079198,251.958143 356.391756,225.803429 353.542786,216.612643 C352.890229,214.541929 352.492328,213.331357 352.492328,213.331357 C352.937977,213.108357 353.144885,210.607571 353.160802,206.466143 C353.272214,192.082643 351.20313,157.899929 349.27729,130.391286 C347.765267,108.760286 346.332824,91.2388571 346.125916,90.6813571 C362.805916,100.190714 417.668473,169.750786 409.057901,256.625214 Z" id="Path" fill="#191714"></path>
                    <path d="M391.836969,253.041286 C376.46187,252.244857 370.015878,260.033929 363.060573,264.3665 C364.079198,251.958143 356.391756,225.803429 353.542786,216.612643 C353.431374,213.426929 353.304046,210.018214 353.160802,206.466143 C351.903435,174.561214 349.372786,131.108071 349.134046,130.279786 C349.181794,130.311643 349.229542,130.3435 349.27729,130.391286 C359.86145,138.578571 391.932252,184.675857 391.836969,253.041286 Z" id="Path" fill="#282624"></path>
                    <path d="M361.596298,180.056571 C361.500802,183.130786 361.357557,186.141286 361.166565,189.088071 C361.102901,190.266786 361.007405,191.429571 360.94374,192.592357 C360.78458,194.902 360.593588,197.163857 360.386679,199.362 C360.211603,201.369 360.004695,203.312286 359.797786,205.223714 C359.62271,206.848429 359.431718,208.441286 359.240725,209.986357 C359.033817,211.642929 358.810992,213.251714 358.604084,214.796786 C358.206183,217.663929 357.69687,226.743214 357.267137,229.259929 C357.251221,229.228071 354.959313,223.637143 351.680611,216.485214 C347.717519,207.883786 342.353817,197.004571 337.817748,190.7765 C303.32771,143.357143 154.671985,37.2250714 44.9787023,202.977786 C44.8991221,203.105214 44.803626,203.248571 44.7081298,203.391929 C-91.8354962,33.9597143 134.299466,4.39628571 134.299466,4.39628571 C272.593855,-14.4312857 329.286756,37.1932143 350.43916,97.4828571 C350.996221,99.012 351.489618,100.541143 351.983015,102.070286 C352.221756,102.834857 352.460496,103.599429 352.699237,104.364 C353.144885,105.845357 353.574618,107.326714 353.972519,108.808071 C354.020267,108.903643 354.052099,108.999214 354.068015,109.094786 C354.259008,109.8275 354.465916,110.560214 354.656908,111.292929 C355.468626,114.383071 356.200763,117.489143 356.853321,120.595214 C357.028397,121.375714 357.187557,122.156214 357.330802,122.920786 C357.474046,123.701286 357.633206,124.465857 357.77645,125.230429 C358.365344,128.3365 358.85874,131.442571 359.288473,134.532714 C359.383969,135.297286 359.511298,136.077786 359.606794,136.842357 C359.829618,138.3715 360.004695,139.9325 360.163855,141.461643 C360.259351,142.226214 360.338931,143.006714 360.418511,143.771286 C360.657252,146.065 360.86416,148.358714 361.007405,150.6365 C361.150649,152.532 361.277977,154.411571 361.373473,156.291143 C361.468969,158.170714 361.564466,160.034357 361.596298,161.882071 C361.62813,162.630714 361.659962,163.363429 361.659962,164.096143 C361.78729,169.559643 361.755458,174.895714 361.596298,180.056571 Z" id="Path" fill="#000000"></path>
                    <path d="M352.985725,198.087714 C352.953893,198.772643 352.937977,199.4735 352.922061,200.1425 C352.890229,201.512357 352.826565,202.882214 352.731069,204.236143 C352.699237,204.905143 352.667405,205.590071 352.60374,206.259071 C352.492328,208.297929 352.317252,210.320857 352.12626,212.296 C351.998931,213.713643 351.839771,215.099429 351.680611,216.485214 C347.717519,207.883786 342.353817,197.004571 337.817748,190.7765 C303.32771,143.357143 154.671985,37.2250714 44.9787023,202.977786 C-54.9739695,35.2658571 161.117977,47.6742143 161.117977,47.6742143 C294.303321,54.6668571 339.743588,108.855857 350.35958,164.558071 C350.646069,165.975714 350.884809,167.377429 351.107634,168.779143 C351.219046,169.48 351.314542,170.180857 351.425954,170.897643 C351.616947,172.251571 351.792023,173.589571 351.951183,174.9435 C351.967099,175.039071 351.983015,175.118714 351.983015,175.214286 C352.062595,175.883286 352.12626,176.552286 352.189924,177.205357 C352.492328,180.024714 352.699237,182.828143 352.826565,185.615643 C352.874313,186.332429 352.906145,187.033286 352.922061,187.718214 C352.937977,188.403143 352.969809,189.104 352.985725,189.788929 C353.049389,192.576429 353.049389,195.348 352.985725,198.087714 Z" id="Path" fill="#191714"></path>
                </g>
                <g transform="translate(120.961832, 793.242857)" id="Path">
                    <path d="M55.5628626,73.7333571 L55.3082061,75.8040714 C54.6715649,79.7543571 52.9844656,82.9719286 49.530687,84.3099286 C38.564542,88.5787857 10.1703435,94.1219286 2.27599237,87.3045 C1.62343511,86.747 1.11412214,86.1098571 0.779885496,85.3771429 C0.60480916,85.0426429 0.477480916,84.6922143 0.381984733,84.3099286 C0.143244275,83.3382857 0.0318320611,82.2710714 0.0477480916,81.1242143 C0.0954961832,75.597 2.99221374,68.1265 8.94480916,61.1975714 C9.2790458,60.7834286 9.6451145,60.3692857 10.0430153,59.9710714 C10.425,59.541 10.8388168,59.1109286 11.2526336,58.6967857 C11.9051908,58.0118571 12.6054962,57.3587857 13.3217176,56.7216429 C13.8946947,56.196 14.4835878,55.6862857 15.0883969,55.1925 C15.5181298,54.8420714 15.9637786,54.4916429 16.4253435,54.1412143 C17.0301527,53.6792857 17.6508779,53.2173571 18.3034351,52.7554286 L18.3193511,52.7554286 C18.9400763,52.3253571 19.5767176,51.8952857 20.2292748,51.4970714 C26.595687,47.4352857 34.5218702,44.2814286 44.0714885,42.8956429 L51.7589313,50.8599286 C51.7589313,50.8599286 55.228626,60.7515714 55.6106107,69.8945714 C55.6583588,71.2007143 55.6583588,72.4909286 55.5628626,73.7333571 Z" fill="#000000"></path>
                    <path d="M55.5628626,73.7333571 C55.6583588,72.4909286 55.6583588,71.2007143 55.6106107,69.8945714 C34.1398855,86.1895 10.6000763,83.5294286 0.0477480916,81.1242143 C0.0318320611,82.2710714 0.143244275,83.3382857 0.381984733,84.3099286 C0.477480916,84.6922143 0.60480916,85.0426429 0.779885496,85.3771429 C1.11412214,86.1098571 1.62343511,86.747 2.27599237,87.3045 C10.1703435,94.1219286 38.564542,88.5787857 49.530687,84.3099286 C52.9844656,82.9719286 54.6715649,79.7543571 55.3082061,75.8040714 L55.5628626,73.7333571 Z" fill="#F4F4F4"></path>
                    <path d="M25.2428244,56.1004286 L25.2428244,57.6932857 C23.0623282,57.6932857 21.2319847,57.4384286 19.7199618,57.0561429 C19.1310687,56.9287143 18.5740076,56.7535 18.0806107,56.5782857 C16.7277481,56.1322857 15.7409542,55.5907143 15.0883969,55.1925 C15.5181298,54.8420714 15.9637786,54.4916429 16.4253435,54.1412143 C16.8391603,54.3642143 17.3803053,54.6190714 18.0487786,54.8739286 C18.4944275,55.0650714 19.0196565,55.2243571 19.5926336,55.3836429 C21.0728244,55.7977857 22.950916,56.1004286 25.2428244,56.1004286 Z" fill="#FFFFFF"></path>
                    <path d="M20.9932443,58.9516429 L20.2770229,60.3852143 C18.8127481,59.6525 18.223855,58.203 18.0806107,56.5782857 C18.0010305,56.0207857 18.0010305,55.4473571 18.0487786,54.8739286 C18.0806107,54.1412143 18.1920229,53.4244286 18.3034351,52.7554286 L18.3193511,52.7554286 C18.9400763,52.3253571 19.5767176,51.8952857 20.2292748,51.4970714 C19.9109542,52.6439286 19.6085496,54.0775 19.5926336,55.3836429 C19.5767176,55.973 19.6085496,56.5464286 19.7199618,57.0561429 C19.9109542,57.9162857 20.2929389,58.6012143 20.9932443,58.9516429 Z" fill="#FFFFFF"></path>
                    <path d="M18.255687,61.6276429 L18.255687,63.2205 C16.0751908,63.2205 14.2448473,62.9656429 12.7328244,62.5992857 C12.1439313,62.4559286 11.5868702,62.2966429 11.0934733,62.1055 C10.2340076,61.8187857 9.51778626,61.5002143 8.94480916,61.1975714 C9.2790458,60.7834286 9.6451145,60.3692857 10.0430153,59.9710714 C10.3454198,60.1144286 10.6796565,60.2577857 11.0616412,60.4011429 C11.5072901,60.5763571 12.0325191,60.7515714 12.6054962,60.9108571 C14.085687,61.325 15.9478626,61.6276429 18.255687,61.6276429 Z" fill="#FFFFFF"></path>
                    <path d="M14.0061069,64.4788571 L13.2898855,65.9124286 C11.8256107,65.1797143 11.2367176,63.7302143 11.0934733,62.1055 C11.0138931,61.548 11.0138931,60.9745714 11.0616412,60.4011429 C11.0934733,59.8117857 11.1571374,59.2383571 11.2526336,58.6967857 C11.9051908,58.0118571 12.6054962,57.3587857 13.3217176,56.7216429 C12.9715649,57.9162857 12.6373282,59.4772857 12.6054962,60.9108571 C12.5895802,61.5161429 12.6214122,62.0895714 12.7328244,62.5992857 C12.9238168,63.4435 13.3217176,64.1284286 14.0061069,64.4788571 Z" fill="#FFFFFF"></path>
                    <path d="M55.5628626,73.7333571 C31.9116412,90.0123571 9.43820611,87.3204286 0.779885496,85.3771429 C1.11412214,86.1098571 1.62343511,86.747 2.27599237,87.3045 C5.37961832,87.8938571 9.59736641,88.4354286 14.6268321,88.4354286 C25.4974809,88.4354286 40.140229,85.9027857 55.3082061,75.8040714 L55.5628626,73.7333571 Z" fill="#000000"></path>
                    <path d="M12.6850763,80.3277857 L12.6850763,79.9455 C12.6850763,79.2765 13.1625573,78.7508571 13.7991985,78.5756429 C18.1920229,77.4287857 30.3200382,65.1319286 30.3200382,65.1319286 L31.1158397,65.2115714 C43.259771,66.3106429 47.0318702,62.6311429 48.1141603,60.9108571 C48.4165649,60.4170714 49.005458,60.1781429 49.5784351,60.3055714 L49.9922519,60.3852143 C50.9312977,60.5763571 51.3928626,61.6435714 50.8994656,62.4718571 C49.4033588,64.9885714 45.0264504,69.2255714 32.6278626,68.5087857 C32.0071374,68.4769286 31.3864122,68.6999286 30.9566794,69.1618571 C27.9167176,72.4272143 20.2133588,80.2003571 14.4358397,81.6817143 C13.560458,81.9047143 12.6850763,81.2516429 12.6850763,80.3277857 Z" fill="#FFFFFF"></path>
                    <g transform="translate(22.282443, 0.000000)">
                        <path d="M27.8053053,0.0159285714 L27.8053053,43.5646429 C27.8053053,46.3362143 26.8025954,49.0440714 24.8767557,51.1147857 C22.6485115,53.5040714 20.1815267,54.8261429 17.698626,55.4473571 C14.4040076,56.2915714 11.0775573,55.8774286 8.26041985,55.081 C3.75618321,53.8067143 0.748053435,49.7608571 0.748053435,45.269 L0.748053435,7.59792857 L27.8053053,0.0159285714 Z" fill="#F4F3F2"></path>
                        <path d="M27.8053053,37.1613571 L27.8053053,38.802 C25.5770611,39.3754286 23.0782443,39.8851429 20.324771,40.1877857 C18.3830153,40.4107857 16.3298473,40.5382143 14.1493511,40.5382143 C10.0589313,40.5382143 5.57061069,40.0762857 0.748053435,38.9453571 L0.748053435,37.3047143 C8.19675573,39.1205714 14.8337405,39.248 20.3884351,38.5949286 C23.1259924,38.2763571 25.6088931,37.7666429 27.8053053,37.1613571 Z" fill="#020202"></path>
                        <path d="M27.8053053,11.6756429 L27.8053053,43.5646429 C27.8053053,46.3362143 26.8025954,49.0440714 24.8767557,51.1147857 C22.6485115,53.5040714 20.1815267,54.8261429 17.698626,55.4473571 C18.5740076,52.5802143 19.3538931,49.283 19.8472901,45.6194286 C20.1019466,43.7557857 20.2611069,41.9399286 20.324771,40.1877857 C20.3566031,39.6462143 20.3725191,39.1205714 20.3884351,38.5949286 C20.6112595,28.3687857 18.3352672,20.0859286 16.664084,15.2755 L27.8053053,11.6756429 Z" fill="#AFADAC" opacity="0.65"></path>
                    </g>
                </g>
                <g transform="translate(259.431298, 793.242857)" id="Path">
                    <path d="M0.28648855,75.151 L0.541145038,77.2217143 C1.17778626,81.172 2.8648855,84.3895714 6.31866412,85.7275714 C17.2848092,89.9964286 45.6790076,95.5395714 53.5733588,88.7221429 C54.225916,88.1646429 54.735229,87.5275 55.0694656,86.7947857 C55.244542,86.4602857 55.3718702,86.1098571 55.4673664,85.7275714 C55.7061069,84.7559286 55.8175191,83.6887143 55.8016031,82.5418571 C55.753855,77.0146429 52.8571374,69.5441429 46.904542,62.6152143 C46.5703053,62.2010714 46.2042366,61.7869286 45.8063359,61.3887143 C45.4243511,60.9586429 45.0105344,60.5285714 44.5967176,60.1144286 C43.9441603,59.4295 43.243855,58.7764286 42.5276336,58.1392857 C41.9546565,57.6136429 41.3657634,57.1039286 40.7609542,56.6101429 C40.3312214,56.2597143 39.8855725,55.9092857 39.4240076,55.5588571 C38.8191985,55.0969286 38.1984733,54.635 37.545916,54.1730714 L37.53,54.1730714 C36.9092748,53.743 36.2726336,53.3129286 35.6200763,52.9147143 C29.2536641,48.8529286 21.3274809,45.6990714 11.7778626,44.3132857 L4.09041985,52.2775714 C4.09041985,52.2775714 0.620725191,62.1692143 0.238740458,71.3122143 C0.190992366,72.6183571 0.190992366,73.9085714 0.28648855,75.151 Z" fill="#000000"></path>
                    <path d="M0.541145038,77.2217143 C1.17778626,81.172 2.8648855,84.3895714 6.31866412,85.7275714 C17.2848092,89.9964286 45.6790076,95.5395714 53.5733588,88.7221429 C54.225916,88.1646429 54.735229,87.5275 55.0694656,86.7947857 C55.244542,86.4602857 55.3718702,86.1098571 55.4673664,85.7275714 C55.7061069,84.7559286 55.8175191,83.6887143 55.8016031,82.5418571 C45.2492748,84.9470714 21.7094656,87.6071429 0.238740458,71.3122143 C0.190992366,72.6183571 0.190992366,73.9085714 0.28648855,75.151 L0.541145038,77.2217143 Z" fill="#F4F4F4"></path>
                    <path d="M30.6065267,57.5180714 L30.6065267,59.1109286 C32.7870229,59.1109286 34.6173664,58.8560714 36.1293893,58.4737857 C36.7182824,58.3463571 37.2753435,58.1711429 37.7687405,57.9959286 C39.1216031,57.5499286 40.1083969,57.0083571 40.7609542,56.6101429 C40.3312214,56.2597143 39.8855725,55.9092857 39.4240076,55.5588571 C39.0101908,55.7818571 38.4690458,56.0367143 37.8005725,56.2915714 C37.3549237,56.4827143 36.8296947,56.642 36.2567176,56.8012857 C34.7765267,57.2154286 32.8984351,57.5180714 30.6065267,57.5180714 Z" fill="#FFFFFF"></path>
                    <path d="M34.8561069,60.3692857 L35.5723282,61.8028571 C37.0366031,61.0701429 37.6254962,59.6206429 37.7687405,57.9959286 C37.8483206,57.4384286 37.8483206,56.865 37.8005725,56.2915714 C37.7687405,55.5588571 37.6573282,54.8420714 37.545916,54.1730714 L37.53,54.1730714 C36.9092748,53.743 36.2726336,53.3129286 35.6200763,52.9147143 C35.9383969,54.0615714 36.2408015,55.4951429 36.2567176,56.8012857 C36.2726336,57.3906429 36.2408015,57.9640714 36.1293893,58.4737857 C35.9383969,59.3339286 35.5564122,60.0188571 34.8561069,60.3692857 Z" fill="#FFFFFF"></path>
                    <path d="M37.5936641,63.0452857 L37.5936641,64.6381429 C39.7741603,64.6381429 41.6045038,64.3832857 43.1165267,64.0169286 C43.7054198,63.8735714 44.2624809,63.7142857 44.7558779,63.5231429 C45.6153435,63.2364286 46.3315649,62.9178571 46.904542,62.6152143 C46.5703053,62.2010714 46.2042366,61.7869286 45.8063359,61.3887143 C45.5039313,61.5320714 45.1696947,61.6754286 44.7877099,61.8187857 C44.3420611,61.994 43.8168321,62.1692143 43.243855,62.3285 C41.7636641,62.7426429 39.9014885,63.0452857 37.5936641,63.0452857 Z" fill="#FFFFFF"></path>
                    <path d="M41.8432443,65.8965 L42.5594656,67.3300714 C44.0237405,66.5973571 44.6126336,65.1478571 44.7558779,63.5231429 C44.835458,62.9656429 44.835458,62.3922143 44.7877099,61.8187857 C44.7558779,61.2294286 44.6922137,60.656 44.5967176,60.1144286 C43.9441603,59.4295 43.243855,58.7764286 42.5276336,58.1392857 C42.8777863,59.3339286 43.2120229,60.8949286 43.243855,62.3285 C43.259771,62.9337857 43.2279389,63.5072143 43.1165267,64.0169286 C42.9255344,64.8611429 42.5276336,65.5460714 41.8432443,65.8965 Z" fill="#FFFFFF"></path>
                    <path d="M0.541145038,77.2217143 C15.7091221,87.3204286 30.3518702,89.8530714 41.2225191,89.8530714 C46.2519847,89.8530714 50.4697328,89.3115 53.5733588,88.7221429 C54.225916,88.1646429 54.735229,87.5275 55.0694656,86.7947857 C46.411145,88.7380714 23.9377099,91.43 0.28648855,75.151 L0.541145038,77.2217143 Z" fill="#000000"></path>
                    <path d="M43.1801908,81.7454286 L43.1801908,81.3631429 C43.1801908,80.6941429 42.7027099,80.1685 42.0660687,79.9932857 C37.6732443,78.8464286 25.545229,66.5495714 25.545229,66.5495714 L24.7494275,66.6292143 C12.6054962,67.7282857 8.83339695,64.0487857 7.75110687,62.3285 C7.44870229,61.8347143 6.85980916,61.5957857 6.28683206,61.7232143 L5.87301527,61.8028571 C4.93396947,61.994 4.47240458,63.0612143 4.96580153,63.8895 C6.4619084,66.4062143 10.8388168,70.6432143 23.2374046,69.9264286 C23.8581298,69.8945714 24.478855,70.1175714 24.9085878,70.5795 C27.9485496,73.8448571 35.6519084,81.618 41.4294275,83.0993571 C42.2888931,83.3223571 43.1801908,82.6692857 43.1801908,81.7454286 Z" fill="#FFFFFF"></path>
                    <g transform="translate(4.774809, 0.000000)">
                        <path d="M0.986793893,1.43357143 L0.986793893,44.9822857 C0.986793893,47.7538571 1.98950382,50.4617143 3.91534351,52.5324286 C6.14358779,54.9217143 8.61057252,56.2437857 11.0934733,56.865 C14.3880916,57.7092143 17.714542,57.2950714 20.5316794,56.4986429 C25.035916,55.2243571 28.0440458,51.1785 28.0440458,46.6866429 L28.0440458,9.01557143 L0.986793893,1.43357143 Z" fill="#F4F3F2"></path>
                        <path d="M0.986793893,38.579 L0.986793893,40.2196429 C3.21503817,40.7930714 5.71385496,41.3027857 8.46732824,41.6054286 C10.409084,41.8284286 12.4622519,41.9558571 14.6427481,41.9558571 C18.7331679,41.9558571 23.2214885,41.4939286 28.0440458,40.363 L28.0440458,38.7223571 C20.5953435,40.5382143 13.9583588,40.6656429 8.40366412,40.0125714 C5.66610687,39.694 3.18320611,39.1842857 0.986793893,38.579 Z" fill="#020202"></path>
                        <path d="M0.986793893,13.0932857 L0.986793893,44.9822857 C0.986793893,47.7538571 1.98950382,50.4617143 3.91534351,52.5324286 C6.14358779,54.9217143 8.61057252,56.2437857 11.0934733,56.865 C10.2180916,53.9978571 9.43820611,50.7006429 8.94480916,47.0370714 C8.69015267,45.1734286 8.53099237,43.3575714 8.46732824,41.6054286 C8.43549618,41.0638571 8.41958015,40.5382143 8.40366412,40.0125714 C8.18083969,29.7864286 10.4568321,21.5035714 12.1280153,16.6931429 L0.986793893,13.0932857 Z" fill="#AFADAC" opacity="0.65"></path>
                    </g>
                </g>
                <g transform="translate(113.003817, 589.357143)" id="Path">
                    <path d="M162.311679,238.2755 C160.767824,237.972857 159.208053,237.765786 157.648282,237.702071 C157.138969,237.670214 156.645573,237.670214 156.13626,237.670214 C134.872443,238.036571 138.676374,221.040786 141.62084,213.0765 C143.069198,209.189929 143.721756,205.000714 143.546679,200.827429 C141.986908,163.092643 112.446756,76.9509286 112.446756,76.9509286 C112.032939,76.5686429 111.603206,76.2182143 111.173473,75.8996429 C99.8094275,67.123 83.8933969,73.1121429 75.9672137,75.8359286 C75.6488931,75.9474286 75.3464885,76.0748571 75.044084,76.2182143 C72.990916,77.2217143 71.399313,79.0853571 70.7785878,81.4109286 C64.5076718,104.316214 65.0488168,203.280429 65.4308015,219.655 C65.4785496,221.263786 65.2398092,222.872571 64.6031679,224.338 C62.040687,230.263429 57.1067176,233.735857 51.599771,235.726929 C46.2519847,237.654286 40.3471374,238.179929 35.5564122,238.179929 C30.0972137,238.179929 25.4019847,234.086286 24.510687,228.431643 L9.16763359,132.016 C8.26041985,126.297643 7.06671756,120.627071 5.33187023,115.131714 C-1.25736641,94.329 -0.748053435,68.6680714 1.73484733,47.0052143 C4.64748092,21.4717143 10.2976718,1.48135714 10.2976718,1.48135714 L174.232786,14.8454286 C176.699771,16.1197143 178.737023,25.7724286 180.424122,40.0444286 C186.313053,89.9645714 187.80916,196.287786 187.80916,196.287786 C192.870458,240.569214 170.524351,239.932071 162.311679,238.2755 Z" fill="#111111"></path>
                    <path d="M75.044084,76.2182143 C72.990916,77.2217143 71.399313,79.0853571 70.7785878,81.4109286 C64.5076718,104.316214 65.0488168,203.280429 65.4308015,219.655 C65.4785496,221.263786 65.2398092,222.872571 64.6031679,224.338 C62.040687,230.263429 57.1067176,233.735857 51.599771,235.726929 C53.3823664,198.724857 60.449084,73.8289286 75.044084,76.2182143 Z" fill="#000000"></path>
                    <path d="M157.648282,237.702071 C157.138969,237.670214 156.645573,237.670214 156.13626,237.670214 C134.872443,238.036571 138.676374,221.040786 141.62084,213.0765 C143.069198,209.189929 143.721756,205.000714 143.546679,200.827429 C141.986908,163.092643 112.446756,76.9509286 112.446756,76.9509286 C112.032939,76.5686429 111.603206,76.2182143 111.173473,75.8996429 C111.571374,76.0270714 111.905611,76.1704286 112.160267,76.3456429 C124.383779,84.5010714 163.823702,193.436571 157.648282,237.702071 Z" fill="#000000"></path>
                </g>
                <path d="M131.259504,414.031357 C131.259504,414.031357 96.3397328,390.3615 99.4274427,543.052786 L107.608282,625.387571 C108.292672,631.392643 112.558168,636.362357 118.399351,637.907429 C138.660458,643.291286 180.599198,638.624214 290.483473,630.150214 C297.804847,629.592714 301.545115,620.624929 300.096756,613.425214 C296.483817,595.362214 290.849542,558.790214 302.340916,549.599429 C302.340916,549.599429 356.29626,528.000286 299.253206,443.180643 C299.253206,443.180643 281.363588,404.474214 253.701527,409.507643 C252.269084,409.7625 251.314122,410.017357 242.878626,414.031357 C210.250763,429.593571 204.393664,434.818143 193.316107,434.722571 C189.798664,434.690714 188.748206,434.149143 172.115954,428.223714 C154.52874,421.979714 140.347557,417.105571 131.259504,414.031357 Z" id="кофта" fill="#191818"></path>
                <g id="куршка" transform="translate(162.343511, 487.414286)">
                    <path d="M59.3032714,35.6322143 C59.3508779,38.1648571 47.3183588,42.816 31.8638931,44.7433571 C16.4094275,46.6707143 5.80935115,38.1170714 3.67660305,36.5242143 C1.41652672,34.8198571 17.1415649,35.5844286 32.5164504,34.3260714 C44.310229,33.3703571 59.2553817,33.4977857 59.3032714,35.6322143 Z" id="Path" fill="#A5A5A5"></path>
                    <path d="M60.8151527,16.8046429 L60.480916,18.5249286 L58.7619847,27.206 L56.7724809,37.3843571 L54.0508397,51.1944286 L53.3823664,54.635 L50.8039695,67.6964286 L50.6129771,68.6680714 L50.1991603,70.7865714 L47.3661069,85.2019286 L47.3501908,85.2656429 C47.3183588,85.5523571 47.1910305,85.8709286 46.9841221,86.2054286 C46.0291603,87.8938571 43.3552672,89.9964286 42.0183206,90.6017143 C28.8557634,96.6067857 20.4361832,91.2707143 16.8709924,88.1646429 C16.4094275,87.7505 15.9637786,87.0496429 15.5499618,86.2054286 C15.3112214,85.7435 15.0883969,85.2337857 14.8814885,84.7081429 C14.1811832,82.9400714 13.6718702,81.0445714 13.528626,80.1366429 L11.6823664,69.8149286 L11.1253053,66.677 L11.0138931,66.0398571 L6.30274809,39.5825 L6.30274809,39.5665714 L5.93667939,37.5277143 L5.92076336,37.4480714 L4.07450382,27.0945 L2.57839695,18.6523571 L2.35557252,17.4258571 L2.085,15.9126429 C3.45377863,16.2949286 4.82255725,16.6453571 6.19133588,16.9639286 C6.22316794,16.9798571 6.23908397,16.9798571 6.27091603,16.9798571 C6.27091603,16.9798571 6.28683206,16.9798571 6.30274809,16.9957857 L6.43007634,16.9957857 C23.9217939,21.0735 40.0924809,20.1496429 50.1991603,18.7797857 C50.2628244,18.7797857 50.3264885,18.7638571 50.3742366,18.7638571 C50.3901527,18.7479286 50.4060687,18.7479286 50.4219847,18.7479286 C56.9157252,17.8718571 60.8151527,16.8046429 60.8151527,16.8046429 Z" id="Path" fill="#FFFFFF"></path>
                    <path d="M60.8151527,16.8046429 L60.480916,18.5249286 L58.7619847,27.206 C36.1453053,34.1030714 13.6718702,29.659 4.07450382,27.0945 L2.57839695,18.6523571 L2.35557252,17.4258571 L6.43007634,16.9957857 C23.9217939,21.0735 40.0924809,20.1496429 50.1991603,18.7797857 C50.2628244,18.7797857 50.3264885,18.7638571 50.3742366,18.7638571 C50.3901527,18.7479286 50.4060687,18.7479286 50.4219847,18.7479286 C56.9157252,17.8718571 60.8151527,16.8046429 60.8151527,16.8046429 Z" id="Path" fill="#E8E7E6"></path>
                    <path d="M50.1991603,63.6665 L47.3342748,84.1187857 C46.2360687,84.6603571 45.1537786,85.1382143 44.0714885,85.5364286 C34.8083588,89.0566429 26.2137023,87.9575714 19.4175573,85.5364286 C17.6031298,84.8992857 15.9319466,84.1825 14.4040076,83.4179286 C13.6877863,80.9171429 13.1784733,78.2252143 13.035229,76.935 L11.1571374,62.2966429 L22.7280916,62.7107857 L41.8114122,63.3957143 C41.8273282,63.3957143 41.8432443,63.3957143 41.8432443,63.3957143 L50.1991603,63.6665 Z" id="Path" fill="#E8E7E6"></path>
                    <path d="M59.2553817,35.9507857 L56.2313359,51.1785 L53.5415267,64.7177857 C53.3346183,65.7531429 52.6979771,66.6451429 51.7907634,67.1707857 C51.5042748,67.3300714 51.1700382,67.5212143 50.8039695,67.6964286 C50.1991603,67.9990714 49.498855,68.3335714 48.6712214,68.6680714 C46.936374,69.3689286 44.7081298,70.0697857 41.9546565,70.5795 C41.9546565,70.5795 41.9387405,70.5795 41.9228244,70.5795 C37.1798473,71.4396429 30.9089313,71.6467143 23.0941603,70.1016429 C19.4493893,69.3848571 15.4544656,68.2857857 11.1253053,66.677 L11.0138931,66.0398571 C10.425,65.8646429 9.94751908,65.7053571 9.59736641,65.5779286 L8.24450382,59.4932143 L4.99763359,44.8548571 L3.5970229,37.2569286 L3.40603053,36.1737857 C3.40603053,36.1737857 4.29732824,36.7312857 5.93667939,37.5277143 C13.1148092,41.0957143 34.5537023,49.5537857 56.7724809,37.3843571 C57.6001145,36.9383571 58.4277481,36.4605 59.2553817,35.9507857 Z" id="Path" fill="#635041"></path>
                    <path d="M56.2313359,51.1785 L53.5415267,64.7177857 C53.3346183,65.7531429 22.2983588,68.6680714 17.8577863,67.8397857 C9.58145038,67.123 9.61328244,65.7531429 9.56553435,65.4823571 L8.24450382,59.4932143 L4.99763359,44.8548571 L3.5970229,37.2569286 C4.05858779,37.7347857 4.93396947,38.5471429 6.30274809,39.5665714 L6.30274809,39.5825 C7.16221374,40.2037143 8.19675573,40.9205 9.47003817,41.6691429 C9.51778626,41.701 9.56553435,41.7169286 9.61328244,41.7487857 C16.6322519,45.8742857 30.1767939,51.067 53.8916794,51.1944286 L54.0508397,51.1944286 C54.6715649,51.1944286 55.276374,51.1944286 55.9130153,51.1785 L56.2313359,51.1785 L56.2313359,51.1785 Z" id="Path" fill="#4F3F34"></path>
                    <path d="M61.1493893,12.6791429 C61.499542,15.5144286 48.2255725,20.6275 31.5614885,22.6982143 C14.8814885,24.7689286 3.50152672,15.0525 1.09820611,13.4437143 C-1.36877863,11.7871429 15.645458,12.4561429 32.2299618,11.1181429 C44.9627863,10.0827857 60.7992366,9.84385714 61.1493893,12.6791429 Z" id="Path" fill="#A5A5A5"></path>
                    <path d="M3.42194656,7.00857143 L3.97900763,16.2471429 C3.97900763,16.2471429 34.903855,27.3812143 59.3667939,15.3551429 C59.3667939,15.3551429 58.2526718,9.35007143 59.3667939,2.43707143 C59.3667939,2.43707143 31.4500763,11.8986429 3.42194656,7.00857143 Z" id="Path" fill="#E2E2E2"></path>
                    <path d="M0.859465649,13.2366429 C0.875381679,13.5711429 0.954961832,15.2755 0.763969466,16.3745714 C0.652557252,17.0117143 0.923129771,17.6488571 1.46427481,17.9992857 C4.42465649,19.8947857 13.7355344,24.6733571 31.5455725,24.1158571 C31.5455725,24.1158571 52.3319084,24.5777857 61.3403817,17.9355714 C61.9611069,17.4736429 62.1680153,16.6294286 61.8019466,15.9445 C61.3562977,15.0843571 60.8788168,13.8419286 61.1334733,12.6791429 C54.7670611,15.5622143 44.6922137,19.0983571 32.1026336,19.4647143 C13.4331298,20.0062857 0.89129771,13.2366429 0.875381679,13.2207143 C0.89129771,13.2366429 0.859465649,13.2207143 0.859465649,13.2366429 Z" id="Path" fill="#C6C6C6"></path>
                    <path d="M59.3667939,2.38928571 C59.7169466,5.25642857 47.5889313,9.12707143 32.2777099,11.0385 C16.9664885,12.9499286 4.9021374,10.0987143 3.53335878,7.55014286 C1.97358779,4.65114286 15.7409542,1.81585714 30.9885115,0.653071429 C42.6867939,-0.238928571 59.0007252,-0.477857143 59.3667939,2.38928571 Z" id="Path" fill="#C6C6C6"></path>
                    <path d="M51.4406107,2.1185 C51.7111832,4.30071429 41.8909924,7.32714286 29.4924046,8.87221429 C17.0938168,10.4172857 7.38503817,8.29878571 6.28683206,6.37142857 C5.04538168,4.17328571 16.1866031,1.92735714 28.5056107,0.955714286 C37.9756489,0.207071429 51.1700382,-0.0637142857 51.4406107,2.1185 Z" id="Path" fill="#9B9A9A"></path>
                    <ellipse id="Oval" fill="#727272" cx="54.0349237" cy="3.66357143" rx="2.56248092" ry="1.115"></ellipse>
                    <path d="M38.071145,3.28128571 C38.2780534,4.95378571 31.4182443,7.18378571 22.7440076,8.26692857 C14.069771,9.35007143 7.24179389,7.66164286 6.4619084,6.16435714 C5.57061069,4.47592857 13.3535496,2.85121429 21.9959542,2.19814286 C28.6329389,1.72028571 37.8642366,1.60878571 38.071145,3.28128571 Z" id="Path" fill="#A5A5A5"></path>
                    <path d="M32.4846183,51.1307143 L32.4846183,51.1307143 C32.3891221,51.1147857 31.8957252,51.0351429 31.3386641,51.0351429 C30.7816031,51.0351429 30.2882061,51.1147857 30.1927099,51.1307143 C30.1290458,51.1466429 30.1131298,51.0829286 30.1608779,51.0510714 C30.208626,51.0192143 31.3386641,50.1431429 31.3386641,50.1431429 C31.3386641,50.1431429 32.4846183,51.0192143 32.5164504,51.0510714 C32.5641985,51.0829286 32.5323664,51.1466429 32.4846183,51.1307143 Z M30.5110305,56.7694286 L30.5110305,56.7694286 C30.5110305,56.7694286 30.4473664,56.7853571 30.4314504,56.8490714 C30.6701908,57.0402143 30.8293511,57.4543571 31.3386641,57.4543571 C31.8320611,57.4543571 32.0071374,57.0402143 32.2458779,56.8490714 C32.2299618,56.8012857 32.1662977,56.7694286 32.1662977,56.7694286 C32.1662977,56.7694286 31.8479771,56.8490714 31.3386641,56.8490714 C30.8134351,56.8490714 30.5110305,56.7694286 30.5110305,56.7694286 Z M31.3386641,56.0685714 L31.3386641,56.0685714 C31.1954198,56.0685714 31.1795038,56.0207857 31.0840076,56.0207857 C30.9885115,56.0207857 30.8134351,56.1004286 30.7816031,56.1482143 C30.7816031,56.1800714 30.7975191,56.2119286 30.8293511,56.2437857 C31.0362595,56.2756429 31.1158397,56.3871429 31.3545802,56.3871429 C31.5933206,56.3871429 31.6729008,56.2756429 31.8798092,56.2437857 C31.9116412,56.2119286 31.9116412,56.196 31.9275573,56.1482143 C31.8957252,56.0845 31.7206489,56.0207857 31.6251527,56.0207857 C31.4978244,56.0207857 31.4659924,56.0685714 31.3386641,56.0685714 Z M42.718626,58.2348571 L42.718626,58.2348571 C42.7027099,58.5056429 42.6708779,58.7764286 42.6390458,59.0472143 C41.3498473,59.2702143 40.8882824,58.1074286 39.5672519,58.1711429 C39.6468321,58.4578571 39.7104962,58.7445714 39.7582443,59.0312857 C40.8564504,59.0312857 41.2861832,60.0507143 42.5117176,59.8914286 C42.4480534,60.21 42.3684733,60.5126429 42.2888931,60.8152857 C41.3339313,60.9108571 40.9837786,59.9551429 39.8855725,59.987 C39.9014885,60.1462857 39.9014885,60.3055714 39.9014885,60.4648571 C39.9014885,60.5604286 39.9014885,60.6400714 39.9014885,60.7356429 C40.8405344,60.7197143 41.158855,61.5957857 42.0501527,61.5639286 C41.9387405,61.8665714 41.8114122,62.1692143 41.6681679,62.4559286 C41.0156107,62.4240714 40.7927863,61.5957857 39.8059924,61.6595 C39.7741603,61.8665714 39.7423282,62.0895714 39.6945802,62.2966429 C40.5540458,62.2329286 40.7291221,63.0293571 41.3498473,63.0930714 C41.190687,63.3797857 41.0315267,63.6505714 40.8405344,63.9213571 C40.4744656,63.7302143 40.1720611,63.1408571 39.4717557,63.109 C39.5354198,62.886 39.599084,62.663 39.6627481,62.44 C39.0420229,62.44 38.3576336,62.2010714 37.7687405,61.6595 C37.9597328,60.5763571 36.2726336,59.4772857 36.2726336,58.6808571 C36.2726336,57.8207143 36.7023664,57.3428571 36.7023664,56.1800714 C36.7023664,55.3199286 36.2885496,54.3801429 35.6519084,53.743 C35.5245802,53.6155714 35.3972519,53.52 35.2540076,53.4244286 C35.8429008,54.1412143 36.2726336,54.9854286 36.2726336,55.973 C36.2726336,57.0720714 35.7633206,57.6455 35.7633206,58.649 C35.7633206,59.6525 37.2435115,60.5285714 37.2435115,61.5639286 C37.2435115,61.9780714 37.1161832,62.3762857 36.6864504,63.1567857 C37.3549237,63.8257857 38.2143893,64.1762143 38.7714504,64.1762143 C38.9465267,64.1762143 39.0420229,64.1125 39.1216031,63.9850714 C39.1693511,63.8576429 39.2330153,63.7302143 39.2807634,63.6187143 C39.8855725,63.6346429 40.156145,64.1921429 40.4903817,64.3992143 C40.3153053,64.6381429 40.1083969,64.8770714 39.9174046,65.1000714 C39.6945802,64.8452143 39.3921756,64.447 38.9624427,64.3195714 C38.8828626,64.4788571 38.8032824,64.6222143 38.7077863,64.7655714 C39.089771,64.8611429 39.3444275,65.2434286 39.5354198,65.4982857 C39.3285115,65.7212857 39.105687,65.9283571 38.8669466,66.1354286 C38.7237023,65.9124286 38.5008779,65.6257143 38.2462214,65.4664286 C38.1507252,65.5938571 38.055229,65.7212857 37.9597328,65.8327857 C38.1666412,65.9761429 38.3576336,66.231 38.4849618,66.454 C38.2143893,66.677 37.9438168,66.8681429 37.6573282,67.0592857 C37.514084,65.8965 35.9383969,65.1000714 36.3522137,63.7620714 C36.2089695,64.001 36.0498092,64.2877143 36.0498092,64.6540714 C36.0498092,65.6257143 37.0843511,66.4062143 37.1639313,67.3619286 C36.9570229,67.4893571 36.7341985,67.6167857 36.511374,67.7282857 C36.479542,66.677 35.3813359,65.4982857 35.3813359,64.6381429 C35.3813359,63.6665 36.6546183,62.6789286 36.6546183,61.5320714 C36.6546183,60.3852143 35.1744275,59.5887857 35.1744275,58.5852857 C35.1744275,57.5817857 35.7951527,56.9924286 35.7951527,55.7022143 C35.7951527,54.7624286 35.3495038,53.7907857 34.6491985,53.1855 C34.5218702,53.074 34.410458,52.9943571 34.2672137,52.9147143 C34.919771,53.6952143 35.3017557,54.412 35.3017557,55.4951429 C35.3017557,56.7057143 34.5855344,57.3906429 34.5855344,58.5693571 C34.5855344,59.764 36.0338931,60.4170714 36.0338931,61.5320714 C36.0338931,62.6470714 34.6969466,63.5709286 34.6969466,64.7177857 C34.6969466,65.7531429 35.8906489,66.7885 35.9065649,68.015 C35.6519084,68.1265 35.3813359,68.238 35.1107634,68.3335714 C35.2699237,67.0911429 33.9329771,65.8009286 33.9329771,64.7974286 C33.9329771,63.6824286 35.3335878,62.7426429 35.3335878,61.5320714 C35.3335878,60.3374286 33.9170611,59.7799286 33.9170611,58.5534286 C33.9170611,57.3269286 34.7924427,56.642 34.7924427,55.2880714 C34.7924427,54.2208571 34.2672137,53.2810714 33.5032443,52.6917143 C33.4873282,52.6757857 33.4714122,52.6598571 33.4554962,52.6439286 C33.375916,52.5961429 33.3281679,52.6598571 33.375916,52.7235714 C33.9170611,53.3925714 34.2035496,54.0775 34.2035496,55.081 C34.2035496,56.3234286 33.2008397,57.3269286 33.2008397,58.5375 C33.2008397,59.9551429 34.5377863,60.3533571 34.5377863,61.5161429 C34.5377863,62.6789286 33.1053435,63.6187143 33.1053435,64.8452143 C33.1053435,65.9920714 34.4741221,67.2663571 34.2353817,68.5884286 C33.9648092,68.6521429 33.6783206,68.7158571 33.4077481,68.7636429 C33.6624046,67.123 32.325458,65.9283571 32.325458,64.8611429 C32.325458,63.6983571 33.8215649,62.6470714 33.8215649,61.5161429 C33.8215649,60.4489286 32.7551908,60.0985 32.6119466,58.9994286 C32.5960305,58.8560714 32.4687023,58.7445714 32.309542,58.7605 C32.0867176,58.8082857 31.816145,58.9516429 31.3704962,58.9516429 C30.9407634,58.9516429 30.6542748,58.8082857 30.4314504,58.7605 C30.2722901,58.7286429 30.1449618,58.8401429 30.1290458,58.9994286 C29.9858015,60.0985 28.9194275,60.4489286 28.9194275,61.5161429 C28.9194275,62.663 30.4155344,63.6983571 30.4155344,64.8611429 C30.4155344,65.9283571 29.0785878,67.123 29.3332443,68.7636429 C29.0467557,68.7158571 28.7761832,68.6521429 28.5056107,68.5884286 C28.2668702,67.2663571 29.6356489,65.9920714 29.6356489,64.8452143 C29.6356489,63.6027857 28.2032061,62.6789286 28.2032061,61.5161429 C28.2032061,60.3533571 29.5401527,59.9551429 29.5401527,58.5375 C29.5401527,57.3269286 28.5374427,56.3234286 28.5374427,55.081 C28.5374427,54.0775 28.8239313,53.3925714 29.3650763,52.7235714 C29.4128244,52.6598571 29.3491603,52.5961429 29.2854962,52.6439286 C29.2695802,52.6598571 29.2536641,52.6757857 29.2377481,52.6917143 C28.4737786,53.2810714 27.9485496,54.2208571 27.9485496,55.2880714 C27.9485496,56.642 28.8239313,57.3269286 28.8239313,58.5534286 C28.8239313,59.7799286 27.4074046,60.3374286 27.4074046,61.5320714 C27.4074046,62.7267143 28.8080153,63.6824286 28.8080153,64.7974286 C28.8080153,65.8168571 27.4710687,67.0911429 27.630229,68.3335714 C27.3596565,68.238 27.105,68.1424286 26.8344275,68.015 C26.8503435,66.7885 28.0440458,65.7531429 28.0440458,64.7177857 C28.0440458,63.5709286 26.7070992,62.6470714 26.7070992,61.5320714 C26.7070992,60.4170714 28.155458,59.764 28.155458,58.5693571 C28.155458,57.3747143 27.4392366,56.7057143 27.4392366,55.4951429 C27.4392366,54.412 27.8212214,53.6952143 28.4737786,52.9147143 C28.3305344,52.9943571 28.2032061,53.074 28.0758779,53.1855 C27.3755725,53.8067143 26.9299237,54.7624286 26.9299237,55.7022143 C26.9299237,56.9924286 27.5506489,57.5658571 27.5506489,58.5852857 C27.5506489,59.5887857 26.086374,60.3852143 26.086374,61.5320714 C26.086374,62.6789286 27.3596565,63.6665 27.3596565,64.6381429 C27.3596565,65.5142143 26.2614504,66.677 26.2296183,67.7282857 C26.0067939,67.6167857 25.7839695,67.4893571 25.5770611,67.3619286 C25.6566412,66.3902857 26.6911832,65.6257143 26.6911832,64.6540714 C26.6911832,64.3036429 26.5320229,64.001 26.3887786,63.7620714 C26.8185115,65.1000714 25.2269084,65.8965 25.0836641,67.0592857 C24.7971756,66.8681429 24.5266031,66.6610714 24.2560305,66.454 C24.3833588,66.231 24.5743511,65.9761429 24.7812595,65.8327857 C24.6698473,65.7053571 24.5902672,65.5779286 24.494771,65.4664286 C24.2401145,65.6257143 24.0172901,65.9124286 23.8740458,66.1354286 C23.6512214,65.9283571 23.4124809,65.7212857 23.2055725,65.4982857 C23.3965649,65.2434286 23.6671374,64.8611429 24.0332061,64.7655714 C23.953626,64.6222143 23.8581298,64.4629286 23.7785496,64.3195714 C23.3488168,64.4310714 23.0464122,64.8452143 22.8235878,65.1000714 C22.6325954,64.8770714 22.425687,64.6381429 22.2506107,64.3992143 C22.5848473,64.1762143 22.8554198,63.6346429 23.460229,63.6187143 C23.5079771,63.7461429 23.5557252,63.8735714 23.6193893,63.9850714 C23.6830534,64.1284286 23.7785496,64.1762143 23.969542,64.1762143 C24.5266031,64.1762143 25.3860687,63.8098571 26.054542,63.1567857 C25.6248092,62.3762857 25.4974809,61.9780714 25.4974809,61.5639286 C25.4974809,60.5285714 26.9776718,59.6525 26.9776718,58.649 C26.9776718,57.6455 26.4683588,57.0561429 26.4683588,55.973 C26.4683588,54.9854286 26.9140076,54.1412143 27.4869847,53.4244286 C27.3437405,53.52 27.2164122,53.6155714 27.089084,53.743 C26.4683588,54.3801429 26.038626,55.3199286 26.038626,56.1800714 C26.038626,57.3428571 26.4683588,57.8207143 26.4683588,58.6808571 C26.4683588,59.4772857 24.7971756,60.5763571 24.9881679,61.6595 C24.3992748,62.2010714 23.6989695,62.44 23.0941603,62.44 C23.1419084,62.663 23.2055725,62.886 23.2851527,63.109 C22.6007634,63.1408571 22.2824427,63.7302143 21.916374,63.9213571 C21.7412977,63.6505714 21.5662214,63.3797857 21.4070611,63.0930714 C22.0277863,63.0293571 22.2028626,62.2488571 23.0623282,62.2966429 C23.0145802,62.0895714 22.9827481,61.8825 22.950916,61.6595 C21.9641221,61.5957857 21.7412977,62.4240714 21.0887405,62.4559286 C20.9614122,62.1692143 20.834084,61.8665714 20.7067557,61.5639286 C21.6139695,61.6117143 21.916374,60.7356429 22.8554198,60.7356429 C22.8554198,60.656 22.8554198,60.5604286 22.8554198,60.4648571 C22.8554198,60.3055714 22.8554198,60.1462857 22.8713359,59.987 C21.7572137,59.9551429 21.4229771,60.9108571 20.4680153,60.8152857 C20.3884351,60.5126429 20.308855,60.21 20.2451908,59.8914286 C21.4548092,60.0507143 21.900458,59.0153571 22.9986641,59.0312857 C23.0464122,58.7445714 23.1100763,58.4419286 23.1896565,58.1711429 C21.868626,58.1074286 21.4070611,59.2702143 20.1178626,59.0472143 C20.0860305,58.7764286 20.0541985,58.5056429 20.0382824,58.2348571 C21.5343893,58.4100714 22.0914504,57.1676429 23.460229,57.3269286 C23.5875573,56.9924286 23.7467176,56.6897857 23.9058779,56.3871429 C22.1869466,56.0845 21.6139695,57.5180714 20.0223664,57.2950714 C20.1974427,51.1466429 25.2269084,46.2087857 31.4182443,46.2087857 C37.6095802,46.2087857 42.6549618,51.1466429 42.8300382,57.2950714 C41.2384351,57.5180714 40.649542,56.0845 38.9306107,56.3871429 C39.105687,56.6897857 39.2489313,57.0083571 39.3762595,57.3269286 C40.665458,57.1676429 41.2225191,58.3941429 42.718626,58.2348571 Z M26.4365267,53.4562857 L26.4365267,53.4562857 C25.5929771,53.1217857 24.5743511,53.1855 23.7148855,53.743 C23.5875573,52.9306429 23.1419084,52.2138571 22.5211832,51.7837857 C22.4416031,51.7200714 22.3461069,51.7837857 22.3620229,51.8793571 C22.4893511,53.5837143 21.5025573,55.0650714 20.2770229,56.3712143 C21.5343893,56.7535 22.6166794,55.1287857 24.2560305,55.6862857 C24.8130916,54.8102143 25.561145,54.0615714 26.4365267,53.4562857 Z M31.3386641,52.4209286 L31.3386641,52.4209286 C30.2722901,52.4209286 29.3969084,53.0102857 29.1581679,53.7907857 C29.1422519,53.8545 29.174084,53.8863571 29.2377481,53.8545 C29.4287405,53.7748571 29.6515649,53.7270714 29.8743893,53.7270714 C30.3041221,53.7270714 30.6861069,53.8863571 30.9089313,54.1571429 C31.0044275,54.4916429 31.0203435,54.9535714 30.9089313,55.2402857 C30.733855,55.1925 30.6701908,55.0650714 30.4951145,55.0650714 C30.3200382,55.0650714 30.1927099,55.1925 29.8903053,55.1925 C29.5879008,55.1925 29.5560687,55.0491429 29.3650763,55.0491429 C29.1422519,55.0491429 29.0945038,55.2880714 29.0945038,55.5429286 C29.0945038,56.7216429 30.1767939,58.3463571 31.3386641,58.3463571 C32.5005344,58.3463571 33.5828244,56.7216429 33.5828244,55.5429286 C33.5828244,55.2880714 33.5350763,55.0491429 33.2963359,55.0172857 C33.1690076,55.0969286 33.0735115,55.1765714 32.8029389,55.1765714 C32.5005344,55.1765714 32.4209542,55.0491429 32.2458779,55.0491429 C32.0389695,55.0491429 32.0548855,55.4951429 31.816145,55.5110714 C31.6569847,55.1128571 31.6410687,54.6031429 31.784313,54.1412143 C32.0071374,53.8704286 32.3891221,53.7111429 32.818855,53.7111429 C33.0575954,53.7111429 33.2804198,53.7589286 33.4714122,53.8385714 C33.5350763,53.8704286 33.5669084,53.8226429 33.5509924,53.7748571 C33.2804198,53.0102857 32.3891221,52.4209286 31.3386641,52.4209286 Z M33.0257634,54.1093571 L33.0257634,54.1093571 C32.7711069,54.1093571 32.4687023,54.189 32.293626,54.3960714 C32.2777099,54.4438571 32.2777099,54.5394286 32.309542,54.5872143 C32.7711069,54.4279286 33.1690076,54.4279286 33.375916,54.6509286 C33.4873282,54.5553571 33.5032443,54.4757143 33.5032443,54.3642143 C33.4873282,54.2208571 33.344084,54.1093571 33.0257634,54.1093571 Z M29.3173282,54.6509286 L29.3173282,54.6509286 C29.5401527,54.4279286 30.0017176,54.4279286 30.4951145,54.6190714 C30.5110305,54.3801429 30.0812977,54.1093571 29.6515649,54.1093571 C29.3332443,54.1093571 29.19,54.2208571 29.19,54.3642143 C29.174084,54.4757143 29.2218321,54.5553571 29.3173282,54.6509286 Z M36.6068702,50.6528571 L36.6068702,50.6528571 C35.7792366,50.7165714 35.0470992,51.0032857 34.4582061,51.4811429 C34.7128626,50.7802857 35.0311832,50.1590714 35.429084,49.5537857 C34.3627099,49.6652857 33.4714122,50.0475714 32.818855,50.7165714 L32.309542,49.3785714 L33.4395802,48.3750714 L31.9275573,48.2795 L31.3227481,46.8777857 L30.7179389,48.2795 L29.205916,48.3750714 L30.3359542,49.3785714 L29.8266412,50.7165714 C29.174084,50.0475714 28.2827863,49.6652857 27.2323282,49.5537857 C27.630229,50.1590714 27.9485496,50.7643571 28.2032061,51.4811429 C27.614313,51.0032857 26.8980916,50.7165714 26.054542,50.6528571 C26.563855,51.29 26.9935878,51.9749286 27.3278244,52.7235714 C27.3596565,52.8032143 27.4392366,52.8350714 27.5347328,52.7872857 C28.680687,52.2138571 29.9698855,51.8952857 31.3386641,51.8952857 C32.7074427,51.8952857 33.9966412,52.2138571 35.1425954,52.7872857 C35.2221756,52.8350714 35.3017557,52.8032143 35.3495038,52.7235714 C35.6678244,51.9908571 36.1134733,51.3059286 36.6068702,50.6528571 Z M38.4372137,55.6862857 L38.4372137,55.6862857 C40.0765649,55.1128571 41.158855,56.7535 42.4162214,56.3712143 C41.190687,55.0650714 40.1879771,53.5837143 40.3312214,51.8793571 C40.3312214,51.7837857 40.2516412,51.7200714 40.156145,51.7837857 C39.5354198,52.2138571 39.089771,52.9306429 38.9624427,53.743 C38.0870611,53.1855 37.0843511,53.1058571 36.2408015,53.4562857 C37.1002672,54.0615714 37.8483206,54.8102143 38.4372137,55.6862857 Z" id="Shape" fill="#1A3326"></path>
                    <polygon id="Path" fill="#000000" points="11.2526336 64.0487857 9.47003817 63.1249286 5.41145038 40.3948571 7.78293893 40.6497143"></polygon>
                    <path d="M38.1666412,28.8147857 C38.3576336,27.875 38.8828626,27.1263571 39.7104962,26.6325714 C39.599084,26.5847857 39.4717557,26.537 39.3603435,26.4892143 C39.7741603,28.8307143 39.599084,31.1881429 38.8669466,33.45 C39.0261069,33.4977857 39.1693511,33.5296429 39.3285115,33.5774286 C39.3603435,33.3385 39.4399237,33.1155 39.5354198,32.8925 C40.1083969,32.7013571 40.3948855,32.8287857 40.3789695,33.2907143 C40.5858779,33.6411429 40.5381298,34.3579286 40.5540458,34.7720714 C40.6017939,35.4888571 40.6017939,36.2215714 40.5540458,36.9542857 C40.4903817,37.7666429 40.3789695,38.5630714 40.1879771,39.3435714 C40.0288168,40.0125714 39.8537405,41.1435 39.4080916,41.6691429 C38.7077863,42.5133571 37.9119847,41.701 37.7846565,41.0479286 C37.6891603,40.6019286 37.7687405,40.1240714 37.8801527,39.694 C38.055229,38.9931429 38.3576336,38.3241429 38.6600382,37.6710714 C39.2011832,36.5401429 40.4108015,33.7048571 41.9705725,34.119 C41.9228244,34.0234286 41.8591603,33.9278571 41.8114122,33.8322857 C41.715916,34.2942143 41.7477481,34.6287143 41.9546565,35.0587857 C42.0024046,35.1543571 42.1297328,35.2021429 42.225229,35.1702857 C44.2465649,34.5331429 44.1829008,31.7615714 42.0819847,31.2677857 C42.0024046,31.2518571 41.9069084,31.2677857 41.8432443,31.3315 C40.7609542,32.6535714 43.0846947,33.8322857 43.4985115,32.1757143 C43.3393511,32.1757143 43.1961069,32.1757143 43.0369466,32.1757143 C43.1801908,32.5420714 43.3711832,32.7332143 43.7531679,32.8447143 C43.8327481,32.8606429 43.9282443,32.8447143 43.9919084,32.781 C44.5012214,32.1438571 44.7558779,31.4589286 44.7717939,30.6465714 C44.6285496,30.6943571 44.4693893,30.7262143 44.326145,30.774 C44.851374,31.6819286 45.7108397,32.1757143 46.7453817,32.2235 C46.888626,32.2235 47.0159542,32.0642143 46.9682061,31.9208571 C46.8408779,31.5067143 46.6976336,31.0925714 46.5703053,30.6784286 C46.5066412,30.5032143 46.2201527,30.4235714 46.1405725,30.6147143 C45.7745038,31.4589286 45.7108397,32.3031429 46.0132443,33.1792143 C46.0928244,33.4022143 46.411145,33.4181429 46.4748092,33.1792143 C46.7294656,32.2394286 47.0000382,31.2996429 47.2546947,30.3598571 C47.0955344,30.3439286 46.936374,30.3120714 46.7931298,30.2961429 C46.8408779,30.8536429 47.0477863,31.2837143 47.4616031,31.6500714 C47.5411832,31.7137857 47.6525954,31.7456429 47.7480916,31.6819286 C49.2123664,30.8058571 48.2574046,28.6395714 46.6180534,29.1970714 C46.4588931,29.2448571 46.3633969,29.4678571 46.5066412,29.5952857 C47.2069466,30.2165 48.1937405,30.0094286 48.8303817,29.3563571 C49.7535115,28.3847143 49.3237786,26.8715 48.973626,25.7565 C48.8781298,25.4697857 48.4324809,25.5812857 48.5120611,25.8839286 C49.4033588,29.213 50.3424046,32.558 52.1727481,35.5047857 C52.2841603,35.68 52.650229,35.6322143 52.6183969,35.3773571 C52.1727481,31.9845714 51.7111832,28.5758571 51.2655344,25.1830714 C51.1859542,25.2627143 51.106374,25.3423571 51.0267939,25.422 C52.8571374,25.6290714 53.2550382,28.1617143 52.9367176,29.6112143 C52.5706489,31.2518571 50.5970611,32.7650714 49.0850382,31.3474286 C49.021374,31.4907857 48.973626,31.6182143 48.9099618,31.7615714 C49.3874427,31.7297143 49.8808397,31.6819286 50.3583206,31.6500714 C50.6607252,31.6341429 50.6607252,31.1562857 50.3583206,31.1722143 C49.8808397,31.2040714 49.3874427,31.2518571 48.9099618,31.2837143 C48.7189695,31.2996429 48.5757252,31.5385714 48.7348855,31.6978571 C50.3901527,33.2588571 52.7616412,31.9049286 53.3187023,29.9935 C53.8439313,28.1617143 53.2709542,25.2149286 51.0108779,24.9441429 C50.8994656,24.9282143 50.7562214,25.0715714 50.7721374,25.1830714 C51.2177863,28.5758571 51.6793511,31.9845714 52.125,35.3773571 C52.2682443,35.3295714 52.4274046,35.2977143 52.5706489,35.2499286 C50.7562214,32.335 49.8330916,29.0377857 48.9577099,25.7405714 C48.7985496,25.7883571 48.6553053,25.8202143 48.496145,25.868 C48.7348855,26.6325714 49.0372901,27.4927143 48.8462977,28.3050714 C48.6553053,29.1174286 47.6207634,29.9138571 46.8408779,29.2448571 C46.8090458,29.3722857 46.7772137,29.5156429 46.7294656,29.6430714 C47.7799237,29.2926429 48.480229,30.6625 47.4934351,31.2518571 C47.5889313,31.2677857 47.6844275,31.2837143 47.7799237,31.2837143 C47.4775191,31.0129286 47.2865267,30.6784286 47.2546947,30.2642857 C47.2387786,30.0094286 46.8567939,29.9297857 46.7931298,30.2005714 C46.5384733,31.1403571 46.2679008,32.0801429 46.0132443,33.0199286 C46.1724046,33.0199286 46.3156489,33.0199286 46.4748092,33.0199286 C46.2201527,32.2712857 46.2360687,31.5545 46.5543893,30.8217857 C46.411145,30.8058571 46.2679008,30.7899286 46.1246565,30.7580714 C46.2519847,31.1722143 46.395229,31.5863571 46.5225573,32.0005 C46.6021374,31.9049286 46.6817176,31.7934286 46.7453817,31.6978571 C45.87,31.666 45.1856107,31.2518571 44.7399618,30.4872857 C44.6126336,30.2802143 44.294313,30.3757857 44.294313,30.6147143 C44.294313,30.9014286 44.2624809,31.1881429 44.1669847,31.4748571 C44.1510687,31.5385714 43.7213359,32.5898571 43.4985115,32.0164286 C43.4189313,31.8093571 43.1006107,31.7615714 43.0369466,32.0164286 C42.750458,31.9208571 42.4639695,31.8412143 42.1774809,31.7456429 C42.3843893,31.8093571 42.5594656,31.9049286 42.7027099,32.0642143 C43.0051145,32.335 43.2279389,32.6854286 43.243855,33.1155 C43.275687,33.8482143 42.734542,34.4535 42.0660687,34.6605714 C42.1615649,34.6924286 42.241145,34.7402143 42.3366412,34.7720714 C42.3048092,34.4853571 42.2729771,34.1986429 42.241145,33.9119286 C42.2729771,33.7845 42.209313,33.6570714 42.0819847,33.6252143 C41.0474427,33.3544286 40.2834733,34.0871429 39.7104962,34.8676429 C38.9465267,35.903 38.3417176,37.0817143 37.8483206,38.2604286 C37.4345038,39.2639286 36.9729389,40.5382143 37.4504198,41.6054286 C37.7528244,42.2744286 38.5327099,42.8956429 39.2807634,42.4655714 C40.140229,41.9877143 40.4108015,40.2833571 40.6177099,39.4391429 C40.9519466,38.0533571 41.0792748,36.6197857 41.0315267,35.2021429 C40.9996947,34.5012857 40.9360305,33.8163571 40.8087023,33.1314286 C40.7450382,32.7650714 40.6972901,32.3509286 40.3312214,32.1597857 C39.4717557,31.7137857 38.9783588,32.7969286 38.8510305,33.4181429 C38.7873664,33.7207857 39.2170992,33.8322857 39.3125954,33.5455714 C40.0606489,31.2040714 40.2198092,28.7510714 39.8059924,26.3299286 C39.7741603,26.1706429 39.5831679,26.1069286 39.4558397,26.1865714 C38.5167939,26.7440714 37.9119847,27.5882857 37.6891603,28.6395714 C37.6414122,28.9740714 38.1029771,29.1174286 38.1666412,28.8147857 L38.1666412,28.8147857 Z" id="Path" fill="#262525"></path>
                </g>
                <g transform="translate(108.229008, 530.421429)" id="Path">
                    <path d="M110.186679,17.3302857 L110.091183,18.2382143 C109.932023,19.7992143 108.801985,20.9938571 107.369542,21.3283571 C106.987557,21.4398571 106.57374,21.4717143 106.144008,21.4239286 L105.666527,21.3602143 C106.287252,21.4239286 106.844313,21.6787857 107.305878,22.0451429 C108.244924,22.7937857 108.722405,24.084 108.372252,25.3742143 C108.229008,25.8839286 107.974351,26.314 107.640115,26.6644286 C106.923893,27.3812143 105.873435,27.7635 104.822977,27.652 L104.122672,27.5723571 C104.584237,27.6201429 105.013969,27.7794286 105.380038,28.0342857 C105.793855,28.2572857 106.128092,28.5917857 106.366832,28.99 C106.780649,29.5952857 106.971641,30.3439286 106.892061,31.1085 L106.892061,31.1722143 C106.732901,32.7013571 105.523282,33.8641429 104.059008,34.0234286 L101.687519,33.8641429 L98.2178244,33.4818571 C98.2178244,33.4977857 98.9499618,33.6092857 99.8094275,33.7367143 L99.9526718,33.7526429 C101.130458,33.9278571 102.483321,34.1030714 102.483321,34.1030714 C103.517863,34.2145714 104.393244,34.8198571 104.870725,35.6640714 C105.284542,36.3649286 105.427786,37.241 105.189046,38.1170714 C104.775229,39.6462143 103.199542,40.5541429 101.639771,40.3948571 L92.2970611,39.3754286 C92.2970611,39.3754286 73.3888168,39.7099286 68.7254198,39.7099286 C61.3722137,39.7099286 57.7115267,41.3027857 57.7115267,41.3027857 C56.0085115,41.9558571 54.3373282,42.5292857 52.6820611,43.039 C49.3874427,44.0584286 46.1724046,44.8070714 43.1006107,45.3167857 C32.3891221,47.0848571 23.1578244,46.0654286 16.0751908,44.2973571 C10.0589313,42.8000714 5.58652672,40.7612143 3.08770992,39.4391429 C1.75076336,38.7382857 1.16187023,37.0976429 1.7189313,35.6640714 L9.66103053,14.9887857 C9.8520229,14.5109286 10.1385115,14.0649286 10.5364122,13.7622857 C15.9796947,9.73235714 29.8107252,11.6756429 41.5408397,14.0808571 C42.1297328,14.1923571 42.718626,14.3197857 43.3075191,14.4472143 C46.3156489,15.0843571 49.1327863,15.7374286 51.583855,16.2949286 C51.9658397,16.3745714 52.3319084,16.4701429 52.6820611,16.5497857 C54.0985878,16.8842857 55.3718702,17.1869286 56.4541603,17.4099286 C57.6160305,17.6647857 56.6929008,14.9250714 56.4859924,13.2047857 C56.4382443,12.7906429 56.2631679,12.4242857 55.9925954,12.1216429 L51.3928626,6.94485714 C49.8808397,5.22457143 50.1354962,2.54857143 52.0454198,1.17871429 C53.700687,-0.0159285714 56.0244275,0.398214286 57.3772901,1.92735714 L63.9187786,9.30228571 C64.4121756,9.85978571 65.0169847,10.2739286 65.685458,10.5447143 C66.210687,10.7517857 66.6563359,10.7995714 66.7677481,10.8155 C68.8527481,11.0862857 81.2513359,14.9250714 88.2862214,15.8170714 C92.5358015,16.3586429 98.8385496,16.3427143 107.003473,13.38 C108.977061,13.5870714 110.393588,15.3551429 110.186679,17.3302857 Z" fill="#E8C3B8"></path>
                    <path d="M106.892061,31.1085 L106.892061,31.1722143 C106.732901,32.7013571 105.523282,33.8641429 104.059008,34.0234286 L101.687519,33.8641429 L98.2178244,33.4818571 C98.2178244,33.4977857 98.9499618,33.6092857 99.8094275,33.7367143 L99.9526718,33.7526429 C101.130458,33.9278571 102.483321,34.1030714 102.483321,34.1030714 C103.517863,34.2145714 104.393244,34.8198571 104.870725,35.6640714 C105.284542,36.3649286 105.427786,37.241 105.189046,38.1170714 C104.775229,39.6462143 103.199542,40.5541429 101.639771,40.3948571 L92.2970611,39.3754286 C92.2970611,39.3754286 73.3888168,39.7099286 68.7254198,39.7099286 C61.3722137,39.7099286 57.7115267,41.3027857 57.7115267,41.3027857 C40.7609542,47.8335 26.2137023,46.83 16.0751908,44.2973571 L16.0751908,24.1636429 C16.0751908,24.1636429 52.2045802,32.1279286 66.9905725,28.9422143 C66.9905725,28.9422143 92.0424046,32.9880714 106.366832,28.99 C106.780649,29.5952857 106.971641,30.3439286 106.892061,31.1085 Z" fill="#DDB9B1" opacity="0.9"></path>
                    <path d="M104.822977,27.652 L104.122672,27.5723571 C104.584237,27.6201429 105.013969,27.7794286 105.380038,28.0342857 L95.9736641,27.3175 L96.0850763,25.7405714 L107.640115,26.6007143 L107.640115,26.6644286 C106.923893,27.3812143 105.873435,27.7635 104.822977,27.652 Z" fill="#DDB9B1" opacity="0.9"></path>
                    <path d="M104.870725,35.6640714 L92.9973664,34.8676429 L93.1087786,33.2907143 L99.8094275,33.7367143 L99.9526718,33.7526429 C101.130458,33.9278571 102.483321,34.1030714 102.483321,34.1030714 C103.517863,34.2145714 104.393244,34.8198571 104.870725,35.6640714 Z" fill="#CCADA8" opacity="0.9"></path>
                    <path d="M106.144008,21.4239286 L105.666527,21.3602143 C106.287252,21.4239286 106.844313,21.6787857 107.305878,22.0451429 L107.305878,22.1088571 L95.7508397,21.2327857 L95.8781679,19.6558571 L107.433206,20.516 L107.369542,21.3283571 C106.987557,21.4398571 106.57374,21.4717143 106.144008,21.4239286 Z" fill="#DDB9B1" opacity="0.9"></path>
                </g>
                <g transform="translate(148.019084, 544.757143)">
                    <path d="M16.2980153,17.6647857 C16.3616794,19.1142857 15.5817939,20.3885714 14.3721756,21.0097857 C14.3562595,21.0257143 14.3403435,21.0257143 14.3403435,21.0257143 C14.1811832,21.1053571 14.0220229,21.1690714 13.8469466,21.2327857 C13.3058015,21.408 12.9079008,21.9017857 12.9079008,22.4752143 L12.9079008,23.6698571 L12.8919847,28.7032857 C9.59736641,29.7227143 6.38232824,30.4713571 3.31053435,30.9810714 C3.93125954,29.6112143 4.36099237,27.9865 4.66339695,26.2025 C4.83847328,25.0875 4.98171756,23.9087857 5.06129771,22.6822857 C5.07721374,22.3477857 4.9498855,22.0292143 4.71114504,21.8221429 C4.58381679,21.6787857 4.44057252,21.5832143 4.26549618,21.5195 C4.01083969,21.4239286 3.77209924,21.2965 3.54927481,21.1372143 C3.51744275,21.1212857 3.48561069,21.1053571 3.45377863,21.0735 C3.40603053,21.0416429 3.37419847,21.0097857 3.34236641,20.9938571 C2.84896947,20.6115714 2.46698473,20.1018571 2.22824427,19.5125 C2.22824427,19.4965714 2.21232824,19.4806429 2.21232824,19.4806429 C2.085,19.1302143 2.00541985,18.7638571 1.98950382,18.3656429 L1.75076336,13.5552143 L1.70301527,12.6791429 L1.52793893,8.96778571 C1.46427481,7.59792857 2.16458015,6.37142857 3.27870229,5.71835714 C3.4378626,5.62278571 3.58110687,5.49535714 3.67660305,5.352 L3.69251908,5.352 C3.9630916,5.0175 4.12225191,4.58742857 4.07450382,4.18921429 C4.04267176,3.93435714 4.01083969,3.69542857 3.97900763,3.4565 C3.78801527,2.15035714 3.62885496,0.971642857 3.51744275,0.1115 C6.52557252,0.748642857 9.34270992,1.40171429 11.7937786,1.95921429 C11.8574427,2.50078571 11.9051908,3.0105 11.9529389,3.4565 C11.984771,3.72728571 12.000687,3.98214286 12.0325191,4.18921429 C12.0484351,4.44407143 12.1916794,4.66707143 12.3985878,4.7945 L12.4145038,4.7945 C12.494084,4.85821429 12.5895802,4.87414286 12.6850763,4.89007143 C12.8919847,4.906 13.0988931,4.95378571 13.2898855,5.0175 L13.3058015,5.0175 C13.528626,5.08121429 13.7514504,5.17678571 13.9424427,5.30421429 C15.0247328,5.86171429 15.7727863,6.96078571 15.8364504,8.26692857 L16.0751908,13.1888571 L16.1229389,14.0649286 L16.2661832,17.1072857 L16.2980153,17.6647857 Z" id="Path" fill="#191818"></path>
                    <path d="M11.9529389,3.4565 L3.97900763,3.4565 C3.78801527,2.15035714 3.62885496,0.971642857 3.51744275,0.1115 C6.52557252,0.748642857 9.34270992,1.40171429 11.7937786,1.95921429 C11.8574427,2.50078571 11.9051908,3.0105 11.9529389,3.4565 Z" id="Path" fill="#020202"></path>
                    <path d="M3.34236641,20.9779286 C3.40603053,21.0257143 3.46969466,21.0894286 3.54927481,21.1372143 C3.48561069,21.1053571 3.40603053,21.0416429 3.34236641,20.9938571 L3.34236641,20.9779286 Z" id="Path" fill="#020202"></path>
                    <path d="M14.3403435,21.0257143 C14.1811832,21.1053571 14.0220229,21.1690714 13.8469466,21.2327857 C13.3058015,21.408 12.9079008,21.9017857 12.9079008,22.4752143 L12.9079008,23.6698571 C10.9979771,24.8645 9.31087786,25.4379286 8.11717557,25.7565 C6.85980916,26.0750714 5.58652672,26.2502857 4.66339695,26.2025 C4.83847328,25.0875 4.98171756,23.9087857 5.06129771,22.6822857 C5.07721374,22.3477857 4.9498855,22.0292143 4.71114504,21.8221429 C5.98442748,22.3955714 7.43278626,22.5389286 8.84931298,22.3318571 C10.2180916,22.1247857 12.0961832,21.7425 14.3403435,21.0257143 Z" id="Path" fill="#020202"></path>
                    <path d="M15.5817939,16.2152857 L13.6559542,16.3108571 L13.4172137,11.5641429 L15.3430534,11.4685714 C15.8682824,11.4367143 16.3298473,11.8508571 16.3457634,12.3765 L16.4890076,15.2117857 C16.5208397,15.7374286 16.1229389,16.1993571 15.5817939,16.2152857 Z" id="Path" fill="#7F7F7F"></path>
                    <path d="M15.9637786,9.74828571 L13.7832824,9.85978571 L13.6559542,7.359 L15.8364504,7.2475 C16.2184351,7.23157143 16.5526718,7.51828571 16.5685878,7.9165 L16.6163359,9.0315 C16.6481679,9.39785714 16.3457634,9.73235714 15.9637786,9.74828571 Z" id="Path" fill="#7F7F7F"></path>
                    <path d="M16.2661832,17.1072857 C16.3616794,19.0665 14.8655725,20.7230714 12.9079008,20.8186429 L8.27633588,21.0416429 L7.9739313,21.0575714 L7.71927481,21.0735 L6.12767176,21.1531429 L5.41145038,21.185 C4.09041985,21.2487143 2.89671756,20.5797143 2.22824427,19.5125 C2.22824427,19.4965714 2.21232824,19.4806429 2.21232824,19.4806429 C1.92583969,18.9868571 1.75076336,18.4293571 1.7189313,17.8240714 L1.5120229,13.6826429 L1.46427481,12.8543571 L1.27328244,8.87221429 C1.19370229,7.26342857 2.22824427,5.84578571 3.67660305,5.352 L3.69251908,5.352 C3.97900763,5.2405 4.29732824,5.17678571 4.63156489,5.16085714 L12.1280153,4.7945 L12.4145038,4.7945 C12.7487405,4.81042857 13.0829771,4.85821429 13.3853817,4.95378571 C13.5922901,5.03342857 13.7832824,5.11307143 13.9742748,5.20864286 C15.0247328,5.78207143 15.7727863,6.88114286 15.8364504,8.15542857 L15.8364504,8.26692857 L16.0751908,13.1888571 L16.1229389,14.0649286 L16.2661832,17.1072857 Z" id="Path" fill="#969696"></path>
                    <path d="M12.3667557,20.1974286 L5.92076336,20.516 C4.20183206,20.5956429 2.75347328,19.2735714 2.6579771,17.5532857 L2.26007634,9.52528571 C2.18049618,7.805 3.50152672,6.3555 5.22045802,6.25992857 L11.6664504,5.94135714 C13.3853817,5.86171429 14.8337405,7.18378571 14.9292366,8.90407143 L15.3271374,16.9320714 C15.4067176,18.6523571 14.085687,20.1177857 12.3667557,20.1974286 Z" id="XMLID_14_" fill="#191818"></path>
                    <path d="M16.1229389,14.0649286 C15.3430534,14.8135714 14.5472519,15.5303571 13.7514504,16.2471429 C11.9529389,17.8718571 10.1225954,19.4806429 8.27633588,21.0416429 L7.9739313,21.0575714 L7.71927481,21.0735 L6.12767176,21.1531429 L6.31866412,20.6115714 C7.75110687,16.5657143 9.24721374,12.5357857 10.8229008,8.55364286 C9.02438931,9.60492857 7.20996183,10.6243571 5.37961832,11.6119286 C4.17,12.265 2.96038168,12.9180714 1.75076336,13.5552143 C1.67118321,13.5870714 1.59160305,13.6348571 1.5120229,13.6826429 L1.46427481,12.8543571 C1.54385496,12.7906429 1.62343511,12.7428571 1.70301527,12.6791429 C2.72164122,11.9782857 3.74026718,11.2774286 4.75889313,10.5765714 C7.1940458,8.93592857 9.6451145,7.34307143 12.1120992,5.76614286 L13.2898855,5.0175 L13.3058015,5.0175 L13.3853817,4.95378571 C13.5922901,5.03342857 13.7832824,5.11307143 13.9742748,5.20864286 L13.9424427,5.30421429 L13.3853817,6.83335714 C12.000687,10.704 10.5682443,14.5427857 9.05622137,18.3497143 C10.3772519,17.3462143 11.6982824,16.3427143 13.035229,15.3710714 C14.0379389,14.6383571 15.0565649,13.9056429 16.0751908,13.1888571 L16.1229389,14.0649286 Z" id="Path" fill="#FCFAFA" opacity="0.1"></path>
                </g>
                <g transform="translate(275.347328, 530.421429)" id="Path">
                    <path d="M34.1717176,46.0813571 C32.0708015,48.168 32.5005344,62.8541429 31.290916,67.5052857 C31.0680916,68.3654286 31.0044275,69.2574286 31.0203435,70.1494286 L31.5933206,92.9750714 C31.5774046,95.0457857 30.1449618,96.7023571 28.3941985,96.6705 C28.0917939,96.6705 27.8212214,96.6067857 27.5506489,96.5112143 C26.4365267,96.1289286 25.5770611,95.0457857 25.3383206,93.7077857 L25.3064885,96.559 C25.3064885,96.7660714 25.2905725,96.9731429 25.2587405,97.1802143 C24.9881679,98.9323571 23.6671374,100.270357 22.1073664,100.239057 C21.7890458,100.239057 21.4707252,100.174786 21.1683206,100.063286 C19.8950382,99.5695 18.9878244,98.1677857 18.9878244,96.5112143 C18.9719084,96.8457143 18.9241603,97.1483571 18.8445802,97.451 C18.4307634,99.0438571 17.1733969,100.206643 15.6932061,100.174786 C15.3908015,100.174786 15.0883969,100.127 14.8178244,100.031429 C13.528626,99.5854286 12.5895802,98.2155714 12.51,96.5749286 L12.494084,96.5908571 C11.9051908,97.2439286 11.1253053,97.6421429 10.2499237,97.6262143 C8.51507634,97.6102857 7.11446565,95.9059286 7.13038168,93.8511429 L7.28954198,80.7419286 C7.22587786,80.8693571 7.16221374,80.9967857 7.08263359,81.1082857 C6.68473282,81.6976429 6.14358779,82.1436429 5.5228626,82.3666429 C5.22045802,82.4622143 4.9021374,82.5259286 4.58381679,82.5259286 C4.44057252,82.5259286 4.28141221,82.5259286 4.12225191,82.4940714 C3.26278626,82.3507143 2.53064885,81.8091429 2.03725191,81.0286429 C1.25736641,79.7702857 1.40061069,78.5119286 1.44835878,78.2570714 C0.970877863,72.6342857 0.939045802,65.4186429 2.32374046,57.2313571 C3.16729008,52.1660714 3.18320611,43.1823571 7.41687023,40.4585714 C12.8760687,36.9383571 15.8046183,20.8505 17.205229,10.0190714 C18.1124427,2.899 25.6566412,-1.30614286 32.1822137,1.65657143 C35.8906489,3.345 39.6468321,5.47942857 42.6072137,7.29528571 C46.5384733,9.7005 48.496145,14.3994286 47.3820229,18.8753571 C44.7399618,29.5156429 37.9597328,42.2903571 34.1717176,46.0813571 Z" fill="#E8C3B8"></path>
                    <path d="M27.9167176,70.7865714 L27.5665649,96.5112143 C26.4524427,96.1289286 25.5929771,95.0457857 25.3542366,93.7077857 L25.3224046,96.559 C25.3224046,96.7660714 25.3064885,96.9731429 25.2746565,97.1802143 C25.2269084,97.0368571 25.1950763,96.8775714 25.1950763,96.7182857 L25.545229,70.7547143 L27.9167176,70.7865714 Z" fill="#DDB9B1" opacity="0.9"></path>
                    <path d="M21.5503053,73.9722857 L21.2001527,99.9358571 C21.2001527,99.9836429 21.2001527,100.0155 21.1842366,100.063286 C19.9109542,99.5695 19.0037405,98.1677857 19.0037405,96.5112143 C18.9878244,96.8457143 18.9400763,97.1483571 18.8604962,97.451 L19.1788168,73.9404286 L21.5503053,73.9722857 Z" fill="#DDB9B1" opacity="0.9"></path>
                    <path d="M15.1838931,73.9722857 L14.8337405,99.9358571 L14.8337405,100.031429 C13.544542,99.5854286 12.6054962,98.2155714 12.525916,96.5749286 L12.51,96.5908571 L12.8124046,73.9404286 L15.1838931,73.9722857 Z" fill="#DDB9B1" opacity="0.9"></path>
                    <path d="M10.3135878,59.0631429 L7.09854962,81.1082857 C6.70064885,81.6976429 6.15950382,82.1436429 5.53877863,82.3666429 L8.81748092,59.8277143 C8.89706107,59.3020714 9.39045802,58.9197857 9.93160305,58.9994286 L10.3135878,59.0631429 Z" fill="#DDB9B1" opacity="0.9"></path>
                </g>
                <g transform="translate(68.438931, 412.550000)">
                    <path d="M70.8581679,44.1858571 C68.7254198,51.7678571 67.754542,59.6206429 67.6908779,67.5052857 C67.5794656,82.3507143 66.6563359,106.179857 62.0884351,119.050143 C61.6587023,120.276643 62.6454962,121.487214 63.9346947,121.343857 C66.1311069,121.104929 69.1710687,125.724214 70.7626718,130.502786 C72.959084,137.097214 62.8364885,153.774429 58.0298473,160.767071 C57.0112214,162.248429 4.39282443,161.101571 7.20996183,133.194714 C10.4568321,101.034929 23.7944656,2.40521429 55.5310305,0.700857143 C70.7785878,-0.1115 77.8134733,19.401 70.8581679,44.1858571 Z" id="левый_рукав_1_" fill="#000000"></path>
                    <path d="M67.6590458,145.2845 C64.619084,152.054143 60.3535878,158.632643 58.1890076,161.7865 C57.1703817,163.267857 55.4991985,164.143929 53.700687,164.159857 C41.9069084,164.271357 -2.49881679,162.837786 0.318320611,134.930929 C3.56519084,102.771143 19.3220611,14.7339286 48.6393893,2.453 C58.0298473,-1.48135714 63.4572137,0.732714286 66.1629389,6.38735714 C70.2215267,14.8613571 68.1206107,31.0607143 63.9506107,45.938 C61.8337786,53.52 60.8469847,61.3727857 60.7833206,69.2415 C60.6878244,84.0869286 59.7487786,107.932 55.1967939,120.786357 C54.7670611,122.012857 55.753855,123.223429 57.0430534,123.096 C59.2394656,122.857071 62.5977481,123.191571 67.1974809,125.453429 C73.2455725,128.432071 71.3674809,137.001643 67.6590458,145.2845 Z" id="Path" fill="#191818"></path>
                    <path d="M67.6590458,145.2845 C64.619084,152.054143 60.3535878,158.632643 58.1890076,161.7865 C57.1703817,163.267857 55.4991985,164.143929 53.700687,164.159857 C41.9069084,164.271357 -2.49881679,162.837786 0.318320611,134.930929 C3.56519084,102.771143 19.3220611,14.7339286 48.6393893,2.453 C58.0298473,-1.48135714 63.4572137,0.732714286 66.1629389,6.38735714 C66.3380153,7.94835714 65.7172901,9.30228571 63.8551145,10.0827857 C-4.72706107,38.7701429 17.730458,148.024214 30.9885115,148.024214 C34.1717176,148.024214 43.5303435,142.767786 46.6976336,142.8315 C56.5496565,143.038571 63.2184733,143.930571 67.6590458,145.2845 Z" id="Path" fill="#000000"></path>
                </g>
                <g transform="translate(241.923664, 407.771429)">
                    <path d="M1.49610687,15.2436429 C0.206908397,24.1636429 3.93125954,47.6901429 30.0335496,78.4004286 C34.9516031,84.1984286 37.1480153,91.8441429 35.8269847,99.3305714 C33.901145,110.241643 37.1161832,123.4305 45.2970229,128.894 C54.8466412,135.265429 61.6109542,141.334214 67.5794656,144.822571 C71.6221374,147.18 72.1473664,144.854429 75.5374809,141.636857 C83.5432443,134.023 91.8514122,124.800357 85.1666794,92.8635714 C82.349542,79.4039286 76.3969466,66.8203571 68.3116031,55.7022143 C54.1622519,36.2693571 32.7392748,1.46542857 11.8733588,1.46542857 C7.11446565,1.48135714 2.33965649,9.44564286 1.49610687,15.2436429 Z" id="правый_рукав_2_" fill="#000000"></path>
                    <path d="M80.3282061,154.395643 C76.9221756,158.154786 73.2137405,168.301286 69.1869847,165.545643 C68.7095038,165.227071 68.1842748,164.892571 67.6112977,164.574 C61.0698092,160.814857 49.1168702,156.800857 43.7213359,148.4065 C37.8164885,139.231643 39.2011832,120.850071 41.1270229,108.123143 C42.4480534,99.3783571 40.2516412,90.4424286 35.3176718,83.6887143 C9.21538168,47.8335 6.6210687,20.4841429 6.78022901,9.95535714 C6.8279771,6.70592857 8.46732824,3.72728571 11.0457252,2.48485714 C14.7859924,0.684928571 18.8923282,0.7805 23.1896565,2.27778571 C41.0633588,8.50585714 62.2157634,38.9135 73.6116412,57.1835714 C81.6969847,70.1653571 87.6495802,84.8515 90.4667176,100.557071 C97.1355344,137.845857 88.3339695,145.523429 80.3282061,154.395643 Z" id="Path" fill="#191818"></path>
                    <path d="M80.3282061,154.395643 C76.9221756,158.154786 73.2137405,168.301286 69.1869847,165.545643 C68.7095038,165.227071 68.1842748,164.892571 67.6112977,164.574 C67.1974809,152.579786 76.2218702,131.968214 80.3282061,122.379214 C93.0610305,92.6405714 64.4121756,64.7496429 59.6373664,57.311 C35.460916,19.6558571 32.2299618,19.9266429 26.7707634,11.5641429 C24.5584351,8.17135714 23.2692366,4.58742857 23.1896565,2.27778571 C41.0633588,8.50585714 62.2157634,38.9135 73.6116412,57.1835714 C81.6969847,70.1653571 87.6495802,84.8515 90.4667176,100.557071 C97.1355344,137.845857 88.3339695,145.523429 80.3282061,154.395643 Z" id="Path" fill="#000000"></path>
                </g>
                <g id="брови" transform="translate(74.805344, 167.250000)">
                    <path d="M0.748053435,55.6385 C0.748053435,55.6385 18.255687,30.1527857 32.5801145,36.5242143 C32.5801145,36.5242143 53.2709542,31.7456429 53.2709542,39.7099286 C53.2709542,47.1963571 50.4538168,51.8793571 35.5564122,51.0829286 C33.9488931,51.0032857 32.325458,50.7484286 30.765687,50.3342857 C25.7521374,49.0281429 3.93125954,49.2670714 0.748053435,55.6385 Z" id="Path" fill="#DDB9B1"></path>
                    <path d="M234.299885,36.2056429 C234.299885,36.2056429 221.376069,7.32714286 205.046221,10.3057857 C205.046221,10.3057857 184.40313,0.939785714 182.716031,8.72885714 C181.124427,16.056 183.082099,21.2487143 198.854885,23.861 C200.557901,24.1477143 202.308664,24.2751429 204.027595,24.2273571 C209.534542,24.0680714 232.326298,29.2448571 234.299885,36.2056429 Z" id="Path" fill="#DDB9B1"></path>
                    <path d="M53.2550382,45.7787143 C52.9367176,45.938 52.6024809,46.0972857 52.2682443,46.2247143 C49.9126718,47.1804286 47.3501908,47.3397143 44.9150382,46.8777857 C38.055229,45.5875714 20.4043511,43.2301429 7.95801527,49.9838571 C5.92076336,51.067 4.04267176,52.405 2.35557252,54.0297143 C2.76938931,53.1695714 17.3643893,24.4503571 48.8144656,27.429 C53.6529389,27.875 57.6478626,31.7137857 58.1412595,36.7790714 C58.4754962,40.0603571 57.5364504,43.5805714 53.2550382,45.7787143 Z" id="Path" fill="#A0805D"></path>
                    <path d="M52.2841603,45.6672143 C52.2841603,45.8583571 52.2841603,46.0335714 52.2682443,46.2247143 C49.9126718,47.1804286 47.3501908,47.3397143 44.9150382,46.8777857 C38.055229,45.5875714 20.4043511,43.2301429 7.95801527,49.9838571 C12.7646565,44.4407143 25.6566412,32.7013571 45.4561832,37.3365714 C49.3396947,38.2445 52.2682443,41.6850714 52.2841603,45.6672143 Z" id="Path" fill="#84694E"></path>
                    <path d="M185.755992,17.8877857 C186.042481,18.1107857 186.328969,18.3178571 186.64729,18.509 C188.780038,19.8947857 191.262939,20.5319286 193.74584,20.5478571 C200.732977,20.5797143 218.495267,21.631 229.445496,30.6147143 C231.244008,32.0642143 232.835611,33.7367143 234.172557,35.6481429 C233.933817,34.7242857 225.052672,3.75914286 193.602595,0.700857143 C188.764122,0.223 184.116641,3.2335 182.668282,8.10764286 C181.713321,11.2774286 181.967977,14.9250714 185.755992,17.8877857 Z" id="Path" fill="#A0805D"></path>
                    <path d="M186.72687,17.9674286 C186.695038,18.1585714 186.663206,18.3337857 186.631374,18.5249286 C188.764122,19.9107143 191.247023,20.5478571 193.729924,20.5637857 C200.717061,20.5956429 218.479351,21.6469286 229.42958,30.6306429 C225.768893,24.2751429 215.327977,10.3057857 195.019122,11.0862857 C191.040115,11.2296429 187.506756,14.0649286 186.72687,17.9674286 Z" id="Path" fill="#84694E"></path>
                </g>
                <g id="улыбка" transform="translate(184.625954, 332.907143)" fill="#9E857E">
                    <path d="M1.36877863,7.62978571 C5.41145038,8.20321429 9.29496183,8.63328571 13.1625573,8.8085 C17.0142366,8.98371429 20.8022519,8.87221429 24.510687,8.39435714 C28.2350382,7.96428571 31.8479771,7.0245 35.3813359,5.67057143 C39.0101908,4.46 42.2570611,2.40521429 45.885916,0.446 C43.6576718,3.82285714 40.7132061,6.97671429 37.020687,9.04742857 C33.4236641,11.2137143 29.3014122,12.6632143 25.1154962,13.1251429 C20.9295802,13.6507857 16.68,13.4277857 12.6373282,12.5198571 C8.62648855,11.5482143 4.71114504,10.0668571 1.36877863,7.62978571 Z" id="Path"></path>
                </g>
                <g id="нос" transform="translate(175.076336, 283.528571)" fill="#D3AAA3">
                    <ellipse id="Oval" transform="translate(8.576959, 19.658140) rotate(-4.249303) translate(-8.576959, -19.658140) " cx="8.57695945" cy="19.6581397" rx="7.60826867" ry="1.9274434"></ellipse>
                    <ellipse id="Oval" transform="translate(31.878670, 17.921159) rotate(-4.249303) translate(-31.878670, -17.921159) " cx="31.8786696" cy="17.9211593" rx="7.60826867" ry="1.9274434"></ellipse>
                    <path d="M0.58889313,10.3217143 C2.43515267,7.359 5.14087786,5.00157143 8.24450382,3.24942857 C11.3640458,1.52914286 14.9292366,0.493785714 18.5421756,0.302642857 C22.1551145,0.0955714286 25.8158015,0.748642857 29.0945038,2.1185 C32.3572901,3.52021429 35.3176718,5.55907143 37.4822519,8.29878571 C34.1876336,7.21564286 31.0999237,6.27585714 27.9962977,5.70242857 C24.9085878,5.129 21.8527099,4.89007143 18.8127481,5.06528571 C15.7727863,5.22457143 12.7487405,5.76614286 9.74061069,6.67407143 C6.70064885,7.582 3.75618321,8.87221429 0.58889313,10.3217143 Z" id="Path"></path>
                </g>
                <g transform="translate(63.664122, 226.185714)">
                    <g id="левый_глаз">
                        <ellipse id="Oval" fill="#F2F2F2" cx="42.3525573" cy="42.9275" rx="40.9678626" ry="41.3665"></ellipse>
                        <ellipse id="Oval" fill="#FFFFFF" cx="44.1988168" cy="41.9717857" rx="36.9411069" ry="37.3047143"></ellipse>
                        <ellipse id="Oval" fill="#4D8E8C" cx="52.6183969" cy="40.6019286" rx="26.1818702" ry="26.4414286"></ellipse>
                        <ellipse id="Oval" fill="#73AAAD" cx="52.6979771" cy="41.0001429" rx="22.3779389" ry="22.6026429"></ellipse>
                        <ellipse id="Oval" fill="#000000" cx="52.6183969" cy="40.6019286" rx="16.9824046" ry="16.9957857"></ellipse>
                        <ellipse id="Oval" fill="#FFFFFF" cx="58.0935115" cy="39.1683571" rx="6.49374046" ry="6.49885714"></ellipse>
                    </g>
                    <g opacity="0.55" transform="translate(1.591603, 70.085714)" fill="#CEAEAA" id="Path">
                        <path d="M63.8551145,13.9852857 C58.9848092,17.171 53.4141985,19.3850714 47.5889313,20.4841429 C41.7636641,21.631 35.6837405,21.5513571 29.8266412,20.3726429 C18.0965267,17.9674286 7.54419847,10.7677143 1.05045802,1.09907143 C5.28412214,5.08121429 9.8520229,8.55364286 14.7859924,11.3411429 C17.2529771,12.7269286 19.799542,13.9375 22.425687,14.9091429 C25.035916,15.9445 27.7416412,16.6931429 30.4791985,17.2506429 C35.954313,18.4134286 41.6045038,18.6205 47.2228626,18.0311429 C52.8412214,17.4417857 58.395916,15.9922857 63.8551145,13.9852857 Z"></path>
                    </g>
                </g>
                <g transform="translate(226.007634, 213.442857)">
                    <g id="правый_глаз">
                        <ellipse id="Oval" fill="#F2F2F2" cx="42.5117176" cy="42.8478571" rx="40.9678626" ry="41.3665"></ellipse>
                        <ellipse id="Oval" fill="#FFFFFF" cx="44.0874046" cy="42.0673571" rx="36.9411069" ry="37.3047143"></ellipse>
                        <ellipse id="Oval" fill="#4D8E8C" cx="52.5547328" cy="42.4655714" rx="26.1818702" ry="26.4414286"></ellipse>
                        <ellipse id="Oval" fill="#73AAAD" cx="52.4751527" cy="42.6726429" rx="23.0782443" ry="23.3035"></ellipse>
                        <ellipse id="Oval" fill="#000000" cx="52.5547328" cy="42.4655714" rx="16.9824046" ry="16.9957857"></ellipse>
                        <ellipse id="Oval" fill="#FFFFFF" cx="57.0589695" cy="41.9558571" rx="6.49374046" ry="6.49885714"></ellipse>
                    </g>
                    <g opacity="0.55" transform="translate(19.099237, 68.492857)" fill="#CEAEAA" id="Path">
                        <path d="M63.7277863,0.382285714 C60.6878244,5.352 56.5974046,9.73235714 51.8066794,13.2366429 C47.0318702,16.7568571 41.5090076,19.3054286 35.7155725,20.739 C24.0809542,23.6061429 11.459542,21.5991429 1.46427481,15.6577857 C7.00305344,17.4417857 12.6214122,18.6205 18.255687,19.0346429 C21.0728244,19.2257857 23.8899618,19.2417143 26.6911832,18.9868571 C29.4924046,18.8116429 32.2617939,18.3337857 34.9675191,17.6488571 C40.4108015,16.3586429 45.6153435,14.1286429 50.4379008,11.1818571 C55.244542,8.20321429 59.6532824,4.52371429 63.7277863,0.382285714 Z"></path>
                    </g>
                </g>
                <g transform="translate(113.003817, 385.471429)">
                    <path d="M139.217519,1.48135714 C139.217519,1.48135714 124.590687,41.2231429 81.9198092,48.9485 C40.2038931,41.3665 26.2137023,1.48135714 26.2137023,1.48135714 C9.91568702,8.28285714 3.9630916,17.8559286 1.83034351,25.4697857 C0.0636641221,31.8252857 3.75618321,38.4515714 10.0748473,40.3470714 C16.9664885,42.4177857 24.494771,44.3132857 32.5801145,45.8424286 C51.3132824,49.3626429 68.0410305,49.9201429 81.840229,49.3148571 C96.0532443,49.9201429 114.468092,48.9325714 133.694656,45.3008571 C141.573092,43.8195 148.926298,41.9717857 155.690611,39.9647857 C162.184351,38.0374286 165.972366,31.2359286 164.014695,24.7370714 C161.054313,14.9250714 154.305916,2.5645 139.217519,1.48135714 Z" id="Path" fill="#111111"></path>
                    <g transform="translate(46.156489, 36.635714)">
                        <ellipse id="Oval" fill="#999999" cx="4.72706107" cy="5.4635" rx="3.97900763" ry="3.98214286"></ellipse>
                        <ellipse id="Oval" fill="#191818" cx="4.72706107" cy="5.4635" rx="2.085" ry="2.08664286"></ellipse>
                        <path d="M7.11446565,62.0099286 L3.93125954,62.0099286 L3.88351145,57.2313571 L3.48561069,11.6915714 L3.46969466,9.23857143 L3.45377863,7.12007143 L3.4378626,5.4635 C3.93125954,4.66707143 5.5228626,4.66707143 5.5228626,4.66707143 L5.60244275,7.359 L5.65019084,9.33414286 L5.72977099,11.9145714 L6.9871374,57.2313571 L7.11446565,62.0099286 Z" id="Path" fill="#000000"></path>
                        <polygon id="Path" fill="#999999" points="7.11446565 62.0099286 3.93125954 62.0099286 3.88351145 57.2313571 6.9871374 57.2313571"></polygon>
                    </g>
                    <g transform="translate(114.595420, 36.635714)">
                        <ellipse id="Oval" fill="#999999" cx="4.72706107" cy="5.4635" rx="3.97900763" ry="3.98214286"></ellipse>
                        <ellipse id="Oval" fill="#191818" cx="4.72706107" cy="5.4635" rx="2.085" ry="2.08664286"></ellipse>
                        <path d="M7.59194656,62.0099286 L4.40874046,62.0099286 L4.3769084,58.0277857 L3.97900763,11.0225714 L3.9630916,9.366 L3.94717557,7.40678571 L3.93125954,5.4635 C4.40874046,4.66707143 6.00034351,4.66707143 6.00034351,4.66707143 L6.06400763,7.04042857 L6.12767176,9.19078571 L6.17541985,10.7358571 L7.48053435,58.0277857 L7.59194656,62.0099286 Z" id="Path" fill="#000000"></path>
                        <polygon id="Path" fill="#999999" points="7.59194656 62.0099286 4.40874046 62.0099286 4.3769084 58.0277857 7.48053435 58.0277857"></polygon>
                    </g>
                </g>
            </g>
        </g>
    </g>
</svg>