<?xml version="1.0" standalone="no"?>
<!DOCTYPE svg PUBLIC "-//W3C//DTD SVG 20010904//EN"
 "http://www.w3.org/TR/2001/REC-SVG-20010904/DTD/svg10.dtd">
<svg version="1.0" xmlns="http://www.w3.org/2000/svg"
 width="468pt" height="352pt" viewBox="0 0 468 352"
 preserveAspectRatio="xMidYMid meet">
<metadata>
Created by potrace 1.8, written by Peter Selinger 2001-2007
</metadata>
<g transform="translate(0,352) scale(0.232836,-0.232836)"
fill="#000000" stroke="none">
<path d="M160 1355 c0 -3 88 -138 197 -300 l196 -295 -196 -295 c-109 -162
-197 -297 -197 -300 0 -3 65 -5 143 -5 l144 0 196 295 c109 162 197 299 197
305 0 6 -88 143 -197 305 l-196 295 -144 0 c-78 0 -143 -2 -143 -5z"/>
<path d="M560 1355 c0 -3 88 -138 197 -300 l196 -295 -196 -295 c-109 -162
-197 -297 -197 -300 0 -3 65 -5 143 -5 l144 0 127 191 128 192 126 -191 127
-192 143 0 c118 0 142 2 135 14 -4 7 -183 277 -397 600 l-388 586 -144 0 c-79
0 -144 -2 -144 -5z"/>
<path d="M1196 998 c4 -7 34 -52 66 -100 l59 -88 264 0 265 0 0 100 0 100
-331 0 c-261 0 -329 -3 -323 -12z"/>
<path d="M1396 698 c4 -7 34 -52 66 -100 l59 -88 164 0 165 0 0 100 0 100
-231 0 c-181 0 -229 -3 -223 -12z"/>
</g>
</svg>
