<?xml version="1.0" encoding="UTF-8"?>
<svg width="2413px" height="790px" viewBox="0 0 2413 790" version="1.1" xmlns="http://www.w3.org/2000/svg" xmlns:xlink="http://www.w3.org/1999/xlink">
    <!-- Generator: Sketch 42 (36781) - http://www.bohemiancoding.com/sketch -->
    <title>Group 3</title>
    <desc>Created with Sketch.</desc>
    <defs>
        <linearGradient x1="47.9522705%" y1="97.5947367%" x2="47.9522705%" y2="0%" id="linearGradient-1">
            <stop stop-color="#FFB300" offset="0%"></stop>
            <stop stop-color="#DD3939" offset="61.3719707%"></stop>
            <stop stop-color="#FF1BB4" offset="100%"></stop>
        </linearGradient>
        <rect id="path-2" x="0" y="0" width="892" height="778" rx="50"></rect>
        <mask id="mask-3" maskContentUnits="userSpaceOnUse" maskUnits="objectBoundingBox" x="0" y="0" width="892" height="778" fill="white">
            <use xlink:href="#path-2"></use>
        </mask>
        <linearGradient x1="50%" y1="3.961%" x2="50%" y2="100%" id="linearGradient-4">
            <stop stop-color="#FDFDFD" offset="0%"></stop>
            <stop stop-color="#CBCBCB" offset="100%"></stop>
        </linearGradient>
        <linearGradient x1="50%" y1="3.961%" x2="50%" y2="100%" id="linearGradient-5">
            <stop stop-color="#B2E198" offset="0%"></stop>
            <stop stop-color="#04A171" offset="100%"></stop>
        </linearGradient>
    </defs>
    <g id="Page-1" stroke="none" stroke-width="1" fill="none" fill-rule="evenodd">
        <g id="Group-3">
            <g id="Group">
                <g id="Hyper">
                    <use id="Background" stroke="url(#linearGradient-1)" mask="url(#mask-3)" stroke-width="50" fill="#000000" xlink:href="#path-2"></use>
                    <rect id="Input-Symbol" fill="#FFFFFF" x="265.332111" y="290.283374" width="134.101624" height="26.0377831"></rect>
                    <g id="lightning-symbol" transform="translate(91.000000, 95.000000)" fill="#FFFFFF">
                        <g id="Capa_1">
                            <polygon id="Shape" points="133.416882 127.815655 78.3263486 98.7668547 118.294114 0 0.225500496 106.075062 52.0953376 141.059182 15.348268 233.90075"></polygon>
                        </g>
                    </g>
                </g>
                <rect id="Rectangle" fill="#FFFFFF" style="mix-blend-mode: color;" x="0" y="0" width="892" height="778"></rect>
            </g>
            <g id="Group-2" transform="translate(1573.000000, 4.000000)">
                <g id="atom-4" transform="translate(23.542601, 0.000000)" fill-rule="nonzero">
                    <g id="Group">
                        <ellipse id="Oval" fill="url(#linearGradient-4)" cx="387.040359" cy="387" rx="386.610986" ry="386.570672"></ellipse>
                        <ellipse id="Oval" fill="url(#linearGradient-5)" cx="386.610986" cy="387.429328" rx="353.497869" ry="353.461008"></ellipse>
                        <path d="M303.74504,332.871398 C299.616611,339.2346 295.596457,345.667386 291.686314,352.166977 C287.557275,340.839933 283.84165,329.366466 280.546809,317.769328 C291.825407,316.151789 303.814587,314.875898 316.45085,313.993055 C312.110558,320.214527 307.874696,326.50819 303.74504,332.871398 L303.74504,332.871398 Z M615.608857,355.471594 C603.11471,343.477617 585.250379,332.487422 562.517805,322.806375 C517.385271,303.589406 456.934405,291.138891 392.295641,287.749617 C384.711997,287.348737 377.122409,287.069537 369.529806,286.912125 C418.880476,228.012539 466.540867,196.674609 494.298918,195.616406 C500.177094,195.392672 505.111858,196.553672 508.976214,199.066148 C521.966256,207.507586 525.57057,233.693578 518.618962,269.107102 C517.374509,276.039479 521.920578,282.688649 528.832507,284.045633 C535.744435,285.402617 542.467406,280.96584 543.936844,274.077633 C555.889739,213.194672 539.17141,187.918734 523.039689,177.433453 C514.618537,171.961031 504.615963,169.406227 493.316199,169.835555 C450.620809,171.456117 390.798883,216.976992 336.214098,287.154 C314.600313,287.900789 293.766656,289.76625 274.278569,292.67782 C272.204463,283.160991 270.564898,273.554648 269.364971,263.888648 C264.469515,223.543898 270.474688,194.905898 285.427146,187.283812 C287.828006,186.05932 290.452623,185.351836 293.452186,185.128102 C306.811126,184.12432 325.661201,193.100906 346.494857,210.401016 C351.98227,214.876738 360.051961,214.093629 364.576212,208.646343 C369.100463,203.199056 368.388234,195.123634 362.980358,190.552148 C336.220145,168.329883 312.181311,157.847625 291.520008,159.401672 C285.133842,159.879375 279.13774,161.527148 273.704056,164.299641 C259.81596,171.380531 250.3244,184.943672 245.492443,204.605086 C241.355949,221.445633 240.769341,242.437359 243.750761,266.996742 C244.930025,276.711047 246.653564,286.818398 248.876022,297.22507 C233.636308,300.435961 219.515382,304.348289 206.854929,308.92275 C151.471873,328.925813 138.687446,355.293211 137.713798,373.890375 C136.782482,391.656094 145.87793,418.093031 194.484757,443.157328 C200.790536,446.245367 208.408318,443.724585 211.626835,437.484885 C214.845352,431.245184 212.48289,423.57754 206.310654,420.230602 C178.350012,405.808805 162.738376,389.412703 163.479195,375.241852 C164.525414,355.272047 198.001381,334.135195 255.020288,322.225875 C260.302784,341.300742 267.085061,361.110305 275.218956,381.198023 C254.726984,419.665219 239.774526,457.576102 232.021624,491.299523 C226.479085,515.39632 224.858353,536.318508 227.207809,553.482563 C229.947329,573.527953 237.966322,588.004172 251.038005,596.500031 C257.70538,600.832617 266.68895,604.218867 278.490657,604.218867 C295.59905,604.218867 318.630975,597.092625 349.074119,575.38132 C352.856978,572.716643 354.923054,568.230452 354.488832,563.624039 C354.05461,559.017627 351.186589,554.99645 346.972405,553.085454 C342.758221,551.174459 337.843263,551.666307 334.091423,554.374477 C304.080677,575.780414 278.291089,583.438781 265.101479,574.867336 C251.034981,565.727484 248.06868,536.645039 257.167152,497.080336 C263.199539,470.842945 273.964099,441.763523 288.562777,411.789164 C291.756574,418.628328 295.066043,425.412888 298.489758,432.139922 C327.871564,489.848273 363.839103,540.0585 399.767334,573.521906 C417.861471,590.371523 435.169432,602.235492 451.204393,608.784258 C460.93483,612.757055 470.072611,614.743453 478.554237,614.743453 C486.4039,614.743453 493.697191,613.041258 500.373638,609.633844 C513.768862,602.803898 523.085045,589.921031 528.062142,571.342008 C532.325633,555.429656 533.281139,535.583813 530.910517,512.348695 C526.244867,466.664555 508.979238,410.945625 482.297643,355.4595 C479.133263,349.180219 471.522788,346.591086 465.185024,349.637675 C458.84726,352.684264 456.116607,360.24442 459.044984,366.637148 C484.465674,419.501953 500.872557,472.179305 505.24188,514.966992 C509.082046,552.599719 502.883352,579.396445 488.653572,586.652695 C473.710185,594.271758 447.058828,582.304992 417.353481,554.640539 C383.578162,523.184695 349.530705,475.523227 321.482374,420.436195 C315.174618,408.052141 309.27413,395.464873 303.790397,382.694625 C310.596987,370.533398 317.80041,358.598522 325.389063,346.909219 C332.956702,335.233772 340.900226,323.806252 349.207164,312.644602 C351.323791,312.614367 353.455536,312.593203 355.602401,312.587156 C366.681431,312.550875 378.558732,312.859266 390.944024,313.509305 C452.640676,316.744383 509.983124,328.47532 552.4094,346.540359 C589.722509,362.431547 611.475387,381.926672 610.598498,398.694656 C609.854655,412.929 592.555765,427.64407 563.137674,439.063594 C556.585973,441.701316 553.372961,449.116004 555.92883,455.699493 C558.484698,462.282982 565.859404,465.588121 572.475023,463.115039 C623.591564,443.272219 635.43258,417.86325 636.36692,400.043109 C637.183333,384.469383 630.198464,369.473133 615.608857,355.46857 L615.608857,355.471594 Z" id="Shape" fill="#F2F8F6"></path>
                        <path d="M360.413192,390.425555 C360.413192,406.005328 373.034336,418.634227 388.603639,418.634227 C404.172942,418.634227 416.794086,406.005328 416.794086,390.425555 C416.794086,374.842758 404.172942,362.213859 388.603639,362.213859 C373.034336,362.213859 360.413192,374.842758 360.413192,390.422531" id="Shape" fill="#F1F8F3"></path>
                    </g>
                </g>
                <rect id="Rectangle" fill="#FFFFFF" style="mix-blend-mode: color;" x="0" y="11.2992701" width="840" height="774"></rect>
            </g>
            <text id="&amp;" font-family="Helvetica" font-size="270" font-weight="normal" fill="#C8C8C8">
                <tspan x="1142.45605" y="460">&amp;</tspan>
            </text>
        </g>
    </g>
</svg>