<?xml version="1.0" standalone="no"?>
<!DOCTYPE svg PUBLIC "-//W3C//DTD SVG 20010904//EN"
 "http://www.w3.org/TR/2001/REC-SVG-20010904/DTD/svg10.dtd">
<svg version="1.0" xmlns="http://www.w3.org/2000/svg"
 width="700.000000pt" height="700.000000pt" viewBox="0 0 700.000000 700.000000"
 preserveAspectRatio="xMidYMid meet">
<metadata>
Created by potrace 1.11, written by Peter Selinger 2001-2013
</metadata>
<g transform="translate(0.000000,700.000000) scale(0.100000,-0.100000)"
fill="#000000" stroke="none">
<path d="M2220 4345 c-184 -59 -300 -216 -300 -404 0 -194 111 -344 298 -406
85 -27 209 -18 294 22 224 106 311 362 198 582 -34 68 -120 147 -197 184 -58
27 -81 32 -158 34 -58 2 -106 -2 -135 -12z"/>
<path d="M4545 4346 c-71 -22 -127 -57 -181 -110 -208 -209 -146 -551 124
-679 56 -27 81 -32 154 -35 129 -6 230 33 318 120 82 82 120 176 120 299 0
189 -120 350 -302 404 -62 18 -177 19 -233 1z"/>
<path d="M3240 2776 c-358 -52 -705 -190 -1004 -402 -131 -92 -272 -214 -295
-255 -57 -100 10 -227 120 -231 61 -1 82 9 179 92 326 276 670 434 1056 485
191 25 341 17 584 -31 347 -68 593 -187 854 -411 117 -101 149 -124 190 -133
109 -24 208 85 176 195 -28 97 -382 371 -630 489 -184 86 -365 141 -625 187
-154 27 -464 35 -605 15z"/>
</g>
</svg>
